G04 #@! TF.GenerationSoftware,KiCad,Pcbnew,(5.0.0-rc2-dev-444-g2974a2c10)*
G04 #@! TF.CreationDate,2018-07-07T21:15:36+02:00*
G04 #@! TF.ProjectId,propellor dev board,70726F70656C6C6F722064657620626F,rev?*
G04 #@! TF.SameCoordinates,Original*
G04 #@! TF.FileFunction,Copper,L2,Bot,Signal*
G04 #@! TF.FilePolarity,Positive*
%FSLAX46Y46*%
G04 Gerber Fmt 4.6, Leading zero omitted, Abs format (unit mm)*
G04 Created by KiCad (PCBNEW (5.0.0-rc2-dev-444-g2974a2c10)) date 07/07/18 21:15:36*
%MOMM*%
%LPD*%
G01*
G04 APERTURE LIST*
%ADD10C,1.600000*%
%ADD11R,2.200000X2.200000*%
%ADD12O,2.200000X2.200000*%
%ADD13R,1.700000X1.700000*%
%ADD14O,1.700000X1.700000*%
%ADD15O,1.600000X1.600000*%
%ADD16O,1.905000X2.000000*%
%ADD17R,1.905000X2.000000*%
%ADD18R,2.400000X1.600000*%
%ADD19O,2.400000X1.600000*%
%ADD20R,1.600000X1.600000*%
%ADD21C,1.500000*%
%ADD22R,2.000000X2.000000*%
%ADD23C,2.000000*%
%ADD24C,0.200000*%
%ADD25C,0.254000*%
G04 APERTURE END LIST*
D10*
X141422440Y-44190920D03*
X143922440Y-44190920D03*
X140172440Y-44190920D03*
X145172440Y-44190920D03*
X155825200Y-43997880D03*
X150825200Y-43997880D03*
X154575200Y-43997880D03*
X152075200Y-43997880D03*
D11*
X131876800Y-49662080D03*
D12*
X121716800Y-49662080D03*
D13*
X115570000Y-52070000D03*
D14*
X115570000Y-49530000D03*
X111137700Y-108546900D03*
X111137700Y-106006900D03*
X111137700Y-103466900D03*
X111137700Y-100926900D03*
X111137700Y-98386900D03*
X111137700Y-95846900D03*
X111137700Y-93306900D03*
X111137700Y-90766900D03*
X111137700Y-88226900D03*
X111137700Y-85686900D03*
X111137700Y-83146900D03*
X111137700Y-80606900D03*
X111137700Y-78066900D03*
X111137700Y-75526900D03*
X111137700Y-72986900D03*
D13*
X111137700Y-70446900D03*
X168892220Y-70380860D03*
D14*
X168892220Y-72920860D03*
X168892220Y-75460860D03*
X168892220Y-78000860D03*
X168892220Y-80540860D03*
X168892220Y-83080860D03*
X168892220Y-85620860D03*
X168892220Y-88160860D03*
X168892220Y-90700860D03*
X168892220Y-93240860D03*
X168892220Y-95780860D03*
X168892220Y-98320860D03*
X168892220Y-100860860D03*
X168892220Y-103400860D03*
X168892220Y-105940860D03*
X168892220Y-108480860D03*
D10*
X174645320Y-60119260D03*
D15*
X174645320Y-75359260D03*
D13*
X135229600Y-64841120D03*
D14*
X137769600Y-64841120D03*
X140309600Y-64841120D03*
X142849600Y-64841120D03*
D16*
X143555720Y-50378360D03*
X141015720Y-50378360D03*
D17*
X138475720Y-50378360D03*
X152463500Y-51244500D03*
D16*
X155003500Y-51244500D03*
X157543500Y-51244500D03*
D18*
X187637420Y-83245960D03*
D19*
X180017420Y-75625960D03*
X187637420Y-80705960D03*
X180017420Y-78165960D03*
X187637420Y-78165960D03*
X180017420Y-80705960D03*
X187637420Y-75625960D03*
X180017420Y-83245960D03*
D20*
X130898900Y-70624700D03*
D15*
X146138900Y-118884700D03*
X130898900Y-73164700D03*
X146138900Y-116344700D03*
X130898900Y-75704700D03*
X146138900Y-113804700D03*
X130898900Y-78244700D03*
X146138900Y-111264700D03*
X130898900Y-80784700D03*
X146138900Y-108724700D03*
X130898900Y-83324700D03*
X146138900Y-106184700D03*
X130898900Y-85864700D03*
X146138900Y-103644700D03*
X130898900Y-88404700D03*
X146138900Y-101104700D03*
X130898900Y-90944700D03*
X146138900Y-98564700D03*
X130898900Y-93484700D03*
X146138900Y-96024700D03*
X130898900Y-96024700D03*
X146138900Y-93484700D03*
X130898900Y-98564700D03*
X146138900Y-90944700D03*
X130898900Y-101104700D03*
X146138900Y-88404700D03*
X130898900Y-103644700D03*
X146138900Y-85864700D03*
X130898900Y-106184700D03*
X146138900Y-83324700D03*
X130898900Y-108724700D03*
X146138900Y-80784700D03*
X130898900Y-111264700D03*
X146138900Y-78244700D03*
X130898900Y-113804700D03*
X146138900Y-75704700D03*
X130898900Y-116344700D03*
X146138900Y-73164700D03*
X130898900Y-118884700D03*
X146138900Y-70624700D03*
D21*
X151574500Y-96570800D03*
X151574500Y-91670800D03*
D22*
X143591280Y-34808160D03*
D23*
X139791280Y-34808160D03*
X151099360Y-35554920D03*
D22*
X154899360Y-35554920D03*
D13*
X188280000Y-61990000D03*
D14*
X188280000Y-59450000D03*
X188280000Y-56910000D03*
X188280000Y-54370000D03*
X188280000Y-51830000D03*
X188280000Y-49290000D03*
D24*
X185154500Y-51244500D02*
X188280000Y-54370000D01*
X157543500Y-51244500D02*
X185154500Y-51244500D01*
X188280000Y-55707919D02*
X188280000Y-54370000D01*
X188280000Y-56910000D02*
X188280000Y-55707919D01*
X142849600Y-69875400D02*
X146138900Y-73164700D01*
X142849600Y-64841120D02*
X142849600Y-69875400D01*
D25*
G36*
X202490000Y-126290000D02*
X101040000Y-126290000D01*
X101040000Y-72986900D01*
X109623608Y-72986900D01*
X109738861Y-73566318D01*
X110067075Y-74057525D01*
X110365461Y-74256900D01*
X110067075Y-74456275D01*
X109738861Y-74947482D01*
X109623608Y-75526900D01*
X109738861Y-76106318D01*
X110067075Y-76597525D01*
X110365461Y-76796900D01*
X110067075Y-76996275D01*
X109738861Y-77487482D01*
X109623608Y-78066900D01*
X109738861Y-78646318D01*
X110067075Y-79137525D01*
X110365461Y-79336900D01*
X110067075Y-79536275D01*
X109738861Y-80027482D01*
X109623608Y-80606900D01*
X109738861Y-81186318D01*
X110067075Y-81677525D01*
X110365461Y-81876900D01*
X110067075Y-82076275D01*
X109738861Y-82567482D01*
X109623608Y-83146900D01*
X109738861Y-83726318D01*
X110067075Y-84217525D01*
X110365461Y-84416900D01*
X110067075Y-84616275D01*
X109738861Y-85107482D01*
X109623608Y-85686900D01*
X109738861Y-86266318D01*
X110067075Y-86757525D01*
X110365461Y-86956900D01*
X110067075Y-87156275D01*
X109738861Y-87647482D01*
X109623608Y-88226900D01*
X109738861Y-88806318D01*
X110067075Y-89297525D01*
X110365461Y-89496900D01*
X110067075Y-89696275D01*
X109738861Y-90187482D01*
X109623608Y-90766900D01*
X109738861Y-91346318D01*
X110067075Y-91837525D01*
X110365461Y-92036900D01*
X110067075Y-92236275D01*
X109738861Y-92727482D01*
X109623608Y-93306900D01*
X109738861Y-93886318D01*
X110067075Y-94377525D01*
X110365461Y-94576900D01*
X110067075Y-94776275D01*
X109738861Y-95267482D01*
X109623608Y-95846900D01*
X109738861Y-96426318D01*
X110067075Y-96917525D01*
X110365461Y-97116900D01*
X110067075Y-97316275D01*
X109738861Y-97807482D01*
X109623608Y-98386900D01*
X109738861Y-98966318D01*
X110067075Y-99457525D01*
X110365461Y-99656900D01*
X110067075Y-99856275D01*
X109738861Y-100347482D01*
X109623608Y-100926900D01*
X109738861Y-101506318D01*
X110067075Y-101997525D01*
X110365461Y-102196900D01*
X110067075Y-102396275D01*
X109738861Y-102887482D01*
X109623608Y-103466900D01*
X109738861Y-104046318D01*
X110067075Y-104537525D01*
X110365461Y-104736900D01*
X110067075Y-104936275D01*
X109738861Y-105427482D01*
X109623608Y-106006900D01*
X109738861Y-106586318D01*
X110067075Y-107077525D01*
X110365461Y-107276900D01*
X110067075Y-107476275D01*
X109738861Y-107967482D01*
X109623608Y-108546900D01*
X109738861Y-109126318D01*
X110067075Y-109617525D01*
X110558282Y-109945739D01*
X110991444Y-110031900D01*
X111283956Y-110031900D01*
X111717118Y-109945739D01*
X112208325Y-109617525D01*
X112536539Y-109126318D01*
X112651792Y-108546900D01*
X112536539Y-107967482D01*
X112208325Y-107476275D01*
X111909939Y-107276900D01*
X112208325Y-107077525D01*
X112536539Y-106586318D01*
X112651792Y-106006900D01*
X112536539Y-105427482D01*
X112208325Y-104936275D01*
X111909939Y-104736900D01*
X112208325Y-104537525D01*
X112536539Y-104046318D01*
X112651792Y-103466900D01*
X112536539Y-102887482D01*
X112208325Y-102396275D01*
X111909939Y-102196900D01*
X112208325Y-101997525D01*
X112536539Y-101506318D01*
X112651792Y-100926900D01*
X112536539Y-100347482D01*
X112208325Y-99856275D01*
X111909939Y-99656900D01*
X112208325Y-99457525D01*
X112536539Y-98966318D01*
X112651792Y-98386900D01*
X112536539Y-97807482D01*
X112208325Y-97316275D01*
X111909939Y-97116900D01*
X112208325Y-96917525D01*
X112536539Y-96426318D01*
X112616425Y-96024700D01*
X129435787Y-96024700D01*
X129547160Y-96584609D01*
X129864323Y-97059277D01*
X130216658Y-97294700D01*
X129864323Y-97530123D01*
X129547160Y-98004791D01*
X129435787Y-98564700D01*
X129547160Y-99124609D01*
X129864323Y-99599277D01*
X130216658Y-99834700D01*
X129864323Y-100070123D01*
X129547160Y-100544791D01*
X129435787Y-101104700D01*
X129547160Y-101664609D01*
X129864323Y-102139277D01*
X130216658Y-102374700D01*
X129864323Y-102610123D01*
X129547160Y-103084791D01*
X129435787Y-103644700D01*
X129547160Y-104204609D01*
X129864323Y-104679277D01*
X130216658Y-104914700D01*
X129864323Y-105150123D01*
X129547160Y-105624791D01*
X129435787Y-106184700D01*
X129547160Y-106744609D01*
X129864323Y-107219277D01*
X130216658Y-107454700D01*
X129864323Y-107690123D01*
X129547160Y-108164791D01*
X129435787Y-108724700D01*
X129547160Y-109284609D01*
X129864323Y-109759277D01*
X130216658Y-109994700D01*
X129864323Y-110230123D01*
X129547160Y-110704791D01*
X129435787Y-111264700D01*
X129547160Y-111824609D01*
X129864323Y-112299277D01*
X130216658Y-112534700D01*
X129864323Y-112770123D01*
X129547160Y-113244791D01*
X129435787Y-113804700D01*
X129547160Y-114364609D01*
X129864323Y-114839277D01*
X130216658Y-115074700D01*
X129864323Y-115310123D01*
X129547160Y-115784791D01*
X129435787Y-116344700D01*
X129547160Y-116904609D01*
X129864323Y-117379277D01*
X130216658Y-117614700D01*
X129864323Y-117850123D01*
X129547160Y-118324791D01*
X129435787Y-118884700D01*
X129547160Y-119444609D01*
X129864323Y-119919277D01*
X130338991Y-120236440D01*
X130757567Y-120319700D01*
X131040233Y-120319700D01*
X131458809Y-120236440D01*
X131933477Y-119919277D01*
X132250640Y-119444609D01*
X132362013Y-118884700D01*
X132250640Y-118324791D01*
X131933477Y-117850123D01*
X131581142Y-117614700D01*
X131933477Y-117379277D01*
X132250640Y-116904609D01*
X132362013Y-116344700D01*
X132250640Y-115784791D01*
X131933477Y-115310123D01*
X131581142Y-115074700D01*
X131933477Y-114839277D01*
X132250640Y-114364609D01*
X132362013Y-113804700D01*
X132250640Y-113244791D01*
X131933477Y-112770123D01*
X131581142Y-112534700D01*
X131933477Y-112299277D01*
X132250640Y-111824609D01*
X132362013Y-111264700D01*
X132250640Y-110704791D01*
X131933477Y-110230123D01*
X131581142Y-109994700D01*
X131933477Y-109759277D01*
X132250640Y-109284609D01*
X132362013Y-108724700D01*
X132250640Y-108164791D01*
X131933477Y-107690123D01*
X131581142Y-107454700D01*
X131933477Y-107219277D01*
X132250640Y-106744609D01*
X132362013Y-106184700D01*
X132250640Y-105624791D01*
X131933477Y-105150123D01*
X131581142Y-104914700D01*
X131933477Y-104679277D01*
X132250640Y-104204609D01*
X132362013Y-103644700D01*
X132250640Y-103084791D01*
X131933477Y-102610123D01*
X131581142Y-102374700D01*
X131933477Y-102139277D01*
X132250640Y-101664609D01*
X132362013Y-101104700D01*
X144675787Y-101104700D01*
X144787160Y-101664609D01*
X145104323Y-102139277D01*
X145456658Y-102374700D01*
X145104323Y-102610123D01*
X144787160Y-103084791D01*
X144675787Y-103644700D01*
X144787160Y-104204609D01*
X145104323Y-104679277D01*
X145456658Y-104914700D01*
X145104323Y-105150123D01*
X144787160Y-105624791D01*
X144675787Y-106184700D01*
X144787160Y-106744609D01*
X145104323Y-107219277D01*
X145456658Y-107454700D01*
X145104323Y-107690123D01*
X144787160Y-108164791D01*
X144675787Y-108724700D01*
X144787160Y-109284609D01*
X145104323Y-109759277D01*
X145456658Y-109994700D01*
X145104323Y-110230123D01*
X144787160Y-110704791D01*
X144675787Y-111264700D01*
X144787160Y-111824609D01*
X145104323Y-112299277D01*
X145456658Y-112534700D01*
X145104323Y-112770123D01*
X144787160Y-113244791D01*
X144675787Y-113804700D01*
X144787160Y-114364609D01*
X145104323Y-114839277D01*
X145456658Y-115074700D01*
X145104323Y-115310123D01*
X144787160Y-115784791D01*
X144675787Y-116344700D01*
X144787160Y-116904609D01*
X145104323Y-117379277D01*
X145456658Y-117614700D01*
X145104323Y-117850123D01*
X144787160Y-118324791D01*
X144675787Y-118884700D01*
X144787160Y-119444609D01*
X145104323Y-119919277D01*
X145578991Y-120236440D01*
X145997567Y-120319700D01*
X146280233Y-120319700D01*
X146698809Y-120236440D01*
X147173477Y-119919277D01*
X147490640Y-119444609D01*
X147602013Y-118884700D01*
X147490640Y-118324791D01*
X147173477Y-117850123D01*
X146821142Y-117614700D01*
X147173477Y-117379277D01*
X147490640Y-116904609D01*
X147602013Y-116344700D01*
X147490640Y-115784791D01*
X147173477Y-115310123D01*
X146821142Y-115074700D01*
X147173477Y-114839277D01*
X147490640Y-114364609D01*
X147602013Y-113804700D01*
X147490640Y-113244791D01*
X147173477Y-112770123D01*
X146821142Y-112534700D01*
X147173477Y-112299277D01*
X147490640Y-111824609D01*
X147602013Y-111264700D01*
X147490640Y-110704791D01*
X147173477Y-110230123D01*
X146821142Y-109994700D01*
X147173477Y-109759277D01*
X147490640Y-109284609D01*
X147602013Y-108724700D01*
X147490640Y-108164791D01*
X147173477Y-107690123D01*
X146821142Y-107454700D01*
X147173477Y-107219277D01*
X147490640Y-106744609D01*
X147602013Y-106184700D01*
X147490640Y-105624791D01*
X147173477Y-105150123D01*
X146821142Y-104914700D01*
X147173477Y-104679277D01*
X147490640Y-104204609D01*
X147602013Y-103644700D01*
X147490640Y-103084791D01*
X147173477Y-102610123D01*
X146821142Y-102374700D01*
X147173477Y-102139277D01*
X147490640Y-101664609D01*
X147602013Y-101104700D01*
X147490640Y-100544791D01*
X147173477Y-100070123D01*
X146789792Y-99813753D01*
X146994034Y-99717089D01*
X147369941Y-99302123D01*
X147530804Y-98913739D01*
X147408815Y-98691700D01*
X146265900Y-98691700D01*
X146265900Y-98711700D01*
X146011900Y-98711700D01*
X146011900Y-98691700D01*
X144868985Y-98691700D01*
X144746996Y-98913739D01*
X144907859Y-99302123D01*
X145283766Y-99717089D01*
X145488008Y-99813753D01*
X145104323Y-100070123D01*
X144787160Y-100544791D01*
X144675787Y-101104700D01*
X132362013Y-101104700D01*
X132250640Y-100544791D01*
X131933477Y-100070123D01*
X131581142Y-99834700D01*
X131933477Y-99599277D01*
X132250640Y-99124609D01*
X132362013Y-98564700D01*
X132250640Y-98004791D01*
X131933477Y-97530123D01*
X131581142Y-97294700D01*
X131933477Y-97059277D01*
X132250640Y-96584609D01*
X132362013Y-96024700D01*
X132250640Y-95464791D01*
X131933477Y-94990123D01*
X131549792Y-94733753D01*
X131754034Y-94637089D01*
X132129941Y-94222123D01*
X132290804Y-93833739D01*
X132168815Y-93611700D01*
X131025900Y-93611700D01*
X131025900Y-93631700D01*
X130771900Y-93631700D01*
X130771900Y-93611700D01*
X129628985Y-93611700D01*
X129506996Y-93833739D01*
X129667859Y-94222123D01*
X130043766Y-94637089D01*
X130248008Y-94733753D01*
X129864323Y-94990123D01*
X129547160Y-95464791D01*
X129435787Y-96024700D01*
X112616425Y-96024700D01*
X112651792Y-95846900D01*
X112536539Y-95267482D01*
X112208325Y-94776275D01*
X111909939Y-94576900D01*
X112208325Y-94377525D01*
X112536539Y-93886318D01*
X112651792Y-93306900D01*
X112536539Y-92727482D01*
X112208325Y-92236275D01*
X111909939Y-92036900D01*
X112208325Y-91837525D01*
X112536539Y-91346318D01*
X112546997Y-91293739D01*
X129506996Y-91293739D01*
X129667859Y-91682123D01*
X130043766Y-92097089D01*
X130292267Y-92214700D01*
X130043766Y-92332311D01*
X129667859Y-92747277D01*
X129506996Y-93135661D01*
X129628985Y-93357700D01*
X130771900Y-93357700D01*
X130771900Y-91071700D01*
X131025900Y-91071700D01*
X131025900Y-93357700D01*
X132168815Y-93357700D01*
X132290804Y-93135661D01*
X132129941Y-92747277D01*
X131754034Y-92332311D01*
X131505533Y-92214700D01*
X131754034Y-92097089D01*
X132129941Y-91682123D01*
X132290804Y-91293739D01*
X132168815Y-91071700D01*
X131025900Y-91071700D01*
X130771900Y-91071700D01*
X129628985Y-91071700D01*
X129506996Y-91293739D01*
X112546997Y-91293739D01*
X112651792Y-90766900D01*
X112536539Y-90187482D01*
X112208325Y-89696275D01*
X111909939Y-89496900D01*
X112208325Y-89297525D01*
X112536539Y-88806318D01*
X112651792Y-88226900D01*
X112536539Y-87647482D01*
X112208325Y-87156275D01*
X111909939Y-86956900D01*
X112208325Y-86757525D01*
X112536539Y-86266318D01*
X112651792Y-85686900D01*
X112536539Y-85107482D01*
X112208325Y-84616275D01*
X111909939Y-84416900D01*
X112208325Y-84217525D01*
X112536539Y-83726318D01*
X112651792Y-83146900D01*
X112536539Y-82567482D01*
X112208325Y-82076275D01*
X111909939Y-81876900D01*
X112208325Y-81677525D01*
X112536539Y-81186318D01*
X112651792Y-80606900D01*
X112536539Y-80027482D01*
X112208325Y-79536275D01*
X111909939Y-79336900D01*
X112208325Y-79137525D01*
X112536539Y-78646318D01*
X112651792Y-78066900D01*
X112536539Y-77487482D01*
X112208325Y-76996275D01*
X111909939Y-76796900D01*
X112208325Y-76597525D01*
X112536539Y-76106318D01*
X112651792Y-75526900D01*
X112536539Y-74947482D01*
X112208325Y-74456275D01*
X111909939Y-74256900D01*
X112208325Y-74057525D01*
X112536539Y-73566318D01*
X112616425Y-73164700D01*
X129435787Y-73164700D01*
X129547160Y-73724609D01*
X129864323Y-74199277D01*
X130216658Y-74434700D01*
X129864323Y-74670123D01*
X129547160Y-75144791D01*
X129435787Y-75704700D01*
X129547160Y-76264609D01*
X129864323Y-76739277D01*
X130216658Y-76974700D01*
X129864323Y-77210123D01*
X129547160Y-77684791D01*
X129435787Y-78244700D01*
X129547160Y-78804609D01*
X129864323Y-79279277D01*
X130216658Y-79514700D01*
X129864323Y-79750123D01*
X129547160Y-80224791D01*
X129435787Y-80784700D01*
X129547160Y-81344609D01*
X129864323Y-81819277D01*
X130216658Y-82054700D01*
X129864323Y-82290123D01*
X129547160Y-82764791D01*
X129435787Y-83324700D01*
X129547160Y-83884609D01*
X129864323Y-84359277D01*
X130216658Y-84594700D01*
X129864323Y-84830123D01*
X129547160Y-85304791D01*
X129435787Y-85864700D01*
X129547160Y-86424609D01*
X129864323Y-86899277D01*
X130216658Y-87134700D01*
X129864323Y-87370123D01*
X129547160Y-87844791D01*
X129435787Y-88404700D01*
X129547160Y-88964609D01*
X129864323Y-89439277D01*
X130248008Y-89695647D01*
X130043766Y-89792311D01*
X129667859Y-90207277D01*
X129506996Y-90595661D01*
X129628985Y-90817700D01*
X130771900Y-90817700D01*
X130771900Y-90797700D01*
X131025900Y-90797700D01*
X131025900Y-90817700D01*
X132168815Y-90817700D01*
X132290804Y-90595661D01*
X132129941Y-90207277D01*
X131754034Y-89792311D01*
X131549792Y-89695647D01*
X131933477Y-89439277D01*
X132250640Y-88964609D01*
X132362013Y-88404700D01*
X132250640Y-87844791D01*
X131933477Y-87370123D01*
X131581142Y-87134700D01*
X131933477Y-86899277D01*
X132250640Y-86424609D01*
X132362013Y-85864700D01*
X132250640Y-85304791D01*
X131933477Y-84830123D01*
X131581142Y-84594700D01*
X131933477Y-84359277D01*
X132250640Y-83884609D01*
X132362013Y-83324700D01*
X132250640Y-82764791D01*
X131933477Y-82290123D01*
X131581142Y-82054700D01*
X131933477Y-81819277D01*
X132250640Y-81344609D01*
X132362013Y-80784700D01*
X132250640Y-80224791D01*
X131933477Y-79750123D01*
X131581142Y-79514700D01*
X131933477Y-79279277D01*
X132250640Y-78804609D01*
X132362013Y-78244700D01*
X132250640Y-77684791D01*
X131933477Y-77210123D01*
X131581142Y-76974700D01*
X131933477Y-76739277D01*
X132250640Y-76264609D01*
X132362013Y-75704700D01*
X132250640Y-75144791D01*
X131933477Y-74670123D01*
X131581142Y-74434700D01*
X131933477Y-74199277D01*
X132250640Y-73724609D01*
X132362013Y-73164700D01*
X132250640Y-72604791D01*
X131933477Y-72130123D01*
X131812794Y-72049485D01*
X131946665Y-72022857D01*
X132156709Y-71882509D01*
X132297057Y-71672465D01*
X132346340Y-71424700D01*
X132346340Y-69824700D01*
X132297057Y-69576935D01*
X132156709Y-69366891D01*
X131946665Y-69226543D01*
X131698900Y-69177260D01*
X130098900Y-69177260D01*
X129851135Y-69226543D01*
X129641091Y-69366891D01*
X129500743Y-69576935D01*
X129451460Y-69824700D01*
X129451460Y-71424700D01*
X129500743Y-71672465D01*
X129641091Y-71882509D01*
X129851135Y-72022857D01*
X129985006Y-72049485D01*
X129864323Y-72130123D01*
X129547160Y-72604791D01*
X129435787Y-73164700D01*
X112616425Y-73164700D01*
X112651792Y-72986900D01*
X112536539Y-72407482D01*
X112208325Y-71916275D01*
X112190081Y-71904084D01*
X112235465Y-71895057D01*
X112445509Y-71754709D01*
X112585857Y-71544665D01*
X112635140Y-71296900D01*
X112635140Y-69596900D01*
X112585857Y-69349135D01*
X112445509Y-69139091D01*
X112235465Y-68998743D01*
X111987700Y-68949460D01*
X110287700Y-68949460D01*
X110039935Y-68998743D01*
X109829891Y-69139091D01*
X109689543Y-69349135D01*
X109640260Y-69596900D01*
X109640260Y-71296900D01*
X109689543Y-71544665D01*
X109829891Y-71754709D01*
X110039935Y-71895057D01*
X110085319Y-71904084D01*
X110067075Y-71916275D01*
X109738861Y-72407482D01*
X109623608Y-72986900D01*
X101040000Y-72986900D01*
X101040000Y-65126870D01*
X133744600Y-65126870D01*
X133744600Y-65817429D01*
X133841273Y-66050818D01*
X134019901Y-66229447D01*
X134253290Y-66326120D01*
X134943850Y-66326120D01*
X135102600Y-66167370D01*
X135102600Y-64968120D01*
X133903350Y-64968120D01*
X133744600Y-65126870D01*
X101040000Y-65126870D01*
X101040000Y-63864811D01*
X133744600Y-63864811D01*
X133744600Y-64555370D01*
X133903350Y-64714120D01*
X135102600Y-64714120D01*
X135102600Y-63514870D01*
X135356600Y-63514870D01*
X135356600Y-64714120D01*
X135376600Y-64714120D01*
X135376600Y-64968120D01*
X135356600Y-64968120D01*
X135356600Y-66167370D01*
X135515350Y-66326120D01*
X136205910Y-66326120D01*
X136439299Y-66229447D01*
X136617927Y-66050818D01*
X136684504Y-65890087D01*
X136698975Y-65911745D01*
X137190182Y-66239959D01*
X137623344Y-66326120D01*
X137915856Y-66326120D01*
X138349018Y-66239959D01*
X138840225Y-65911745D01*
X139039600Y-65613359D01*
X139238975Y-65911745D01*
X139730182Y-66239959D01*
X140163344Y-66326120D01*
X140455856Y-66326120D01*
X140889018Y-66239959D01*
X141380225Y-65911745D01*
X141579600Y-65613359D01*
X141778975Y-65911745D01*
X142114600Y-66136003D01*
X142114601Y-69803011D01*
X142100202Y-69875400D01*
X142157246Y-70162182D01*
X142157247Y-70162183D01*
X142319696Y-70405305D01*
X142381063Y-70446309D01*
X144746078Y-72811325D01*
X144675787Y-73164700D01*
X144787160Y-73724609D01*
X145104323Y-74199277D01*
X145456658Y-74434700D01*
X145104323Y-74670123D01*
X144787160Y-75144791D01*
X144675787Y-75704700D01*
X144787160Y-76264609D01*
X145104323Y-76739277D01*
X145456658Y-76974700D01*
X145104323Y-77210123D01*
X144787160Y-77684791D01*
X144675787Y-78244700D01*
X144787160Y-78804609D01*
X145104323Y-79279277D01*
X145456658Y-79514700D01*
X145104323Y-79750123D01*
X144787160Y-80224791D01*
X144675787Y-80784700D01*
X144787160Y-81344609D01*
X145104323Y-81819277D01*
X145456658Y-82054700D01*
X145104323Y-82290123D01*
X144787160Y-82764791D01*
X144675787Y-83324700D01*
X144787160Y-83884609D01*
X145104323Y-84359277D01*
X145456658Y-84594700D01*
X145104323Y-84830123D01*
X144787160Y-85304791D01*
X144675787Y-85864700D01*
X144787160Y-86424609D01*
X145104323Y-86899277D01*
X145456658Y-87134700D01*
X145104323Y-87370123D01*
X144787160Y-87844791D01*
X144675787Y-88404700D01*
X144787160Y-88964609D01*
X145104323Y-89439277D01*
X145456658Y-89674700D01*
X145104323Y-89910123D01*
X144787160Y-90384791D01*
X144675787Y-90944700D01*
X144787160Y-91504609D01*
X145104323Y-91979277D01*
X145456658Y-92214700D01*
X145104323Y-92450123D01*
X144787160Y-92924791D01*
X144675787Y-93484700D01*
X144787160Y-94044609D01*
X145104323Y-94519277D01*
X145456658Y-94754700D01*
X145104323Y-94990123D01*
X144787160Y-95464791D01*
X144675787Y-96024700D01*
X144787160Y-96584609D01*
X145104323Y-97059277D01*
X145488008Y-97315647D01*
X145283766Y-97412311D01*
X144907859Y-97827277D01*
X144746996Y-98215661D01*
X144868985Y-98437700D01*
X146011900Y-98437700D01*
X146011900Y-98417700D01*
X146265900Y-98417700D01*
X146265900Y-98437700D01*
X147408815Y-98437700D01*
X147530804Y-98215661D01*
X147369941Y-97827277D01*
X146994034Y-97412311D01*
X146789792Y-97315647D01*
X147173477Y-97059277D01*
X147490640Y-96584609D01*
X147548186Y-96295306D01*
X150189500Y-96295306D01*
X150189500Y-96846294D01*
X150400353Y-97355340D01*
X150789960Y-97744947D01*
X151299006Y-97955800D01*
X151849994Y-97955800D01*
X152359040Y-97744947D01*
X152748647Y-97355340D01*
X152959500Y-96846294D01*
X152959500Y-96295306D01*
X152748647Y-95786260D01*
X152359040Y-95396653D01*
X151849994Y-95185800D01*
X151299006Y-95185800D01*
X150789960Y-95396653D01*
X150400353Y-95786260D01*
X150189500Y-96295306D01*
X147548186Y-96295306D01*
X147602013Y-96024700D01*
X147490640Y-95464791D01*
X147173477Y-94990123D01*
X146821142Y-94754700D01*
X147173477Y-94519277D01*
X147490640Y-94044609D01*
X147602013Y-93484700D01*
X147490640Y-92924791D01*
X147173477Y-92450123D01*
X146821142Y-92214700D01*
X147173477Y-91979277D01*
X147490640Y-91504609D01*
X147512381Y-91395306D01*
X150189500Y-91395306D01*
X150189500Y-91946294D01*
X150400353Y-92455340D01*
X150789960Y-92844947D01*
X151299006Y-93055800D01*
X151849994Y-93055800D01*
X152359040Y-92844947D01*
X152748647Y-92455340D01*
X152959500Y-91946294D01*
X152959500Y-91395306D01*
X152748647Y-90886260D01*
X152359040Y-90496653D01*
X151849994Y-90285800D01*
X151299006Y-90285800D01*
X150789960Y-90496653D01*
X150400353Y-90886260D01*
X150189500Y-91395306D01*
X147512381Y-91395306D01*
X147602013Y-90944700D01*
X147490640Y-90384791D01*
X147173477Y-89910123D01*
X146821142Y-89674700D01*
X147173477Y-89439277D01*
X147490640Y-88964609D01*
X147602013Y-88404700D01*
X147490640Y-87844791D01*
X147173477Y-87370123D01*
X146821142Y-87134700D01*
X147173477Y-86899277D01*
X147490640Y-86424609D01*
X147602013Y-85864700D01*
X147490640Y-85304791D01*
X147173477Y-84830123D01*
X146821142Y-84594700D01*
X147173477Y-84359277D01*
X147490640Y-83884609D01*
X147602013Y-83324700D01*
X147490640Y-82764791D01*
X147173477Y-82290123D01*
X146821142Y-82054700D01*
X147173477Y-81819277D01*
X147490640Y-81344609D01*
X147602013Y-80784700D01*
X147490640Y-80224791D01*
X147173477Y-79750123D01*
X146821142Y-79514700D01*
X147173477Y-79279277D01*
X147490640Y-78804609D01*
X147602013Y-78244700D01*
X147490640Y-77684791D01*
X147173477Y-77210123D01*
X146821142Y-76974700D01*
X147173477Y-76739277D01*
X147490640Y-76264609D01*
X147602013Y-75704700D01*
X147490640Y-75144791D01*
X147173477Y-74670123D01*
X146821142Y-74434700D01*
X147173477Y-74199277D01*
X147490640Y-73724609D01*
X147602013Y-73164700D01*
X147553511Y-72920860D01*
X167378128Y-72920860D01*
X167493381Y-73500278D01*
X167821595Y-73991485D01*
X168119981Y-74190860D01*
X167821595Y-74390235D01*
X167493381Y-74881442D01*
X167378128Y-75460860D01*
X167493381Y-76040278D01*
X167821595Y-76531485D01*
X168119981Y-76730860D01*
X167821595Y-76930235D01*
X167493381Y-77421442D01*
X167378128Y-78000860D01*
X167493381Y-78580278D01*
X167821595Y-79071485D01*
X168119981Y-79270860D01*
X167821595Y-79470235D01*
X167493381Y-79961442D01*
X167378128Y-80540860D01*
X167493381Y-81120278D01*
X167821595Y-81611485D01*
X168119981Y-81810860D01*
X167821595Y-82010235D01*
X167493381Y-82501442D01*
X167378128Y-83080860D01*
X167493381Y-83660278D01*
X167821595Y-84151485D01*
X168119981Y-84350860D01*
X167821595Y-84550235D01*
X167493381Y-85041442D01*
X167378128Y-85620860D01*
X167493381Y-86200278D01*
X167821595Y-86691485D01*
X168119981Y-86890860D01*
X167821595Y-87090235D01*
X167493381Y-87581442D01*
X167378128Y-88160860D01*
X167493381Y-88740278D01*
X167821595Y-89231485D01*
X168119981Y-89430860D01*
X167821595Y-89630235D01*
X167493381Y-90121442D01*
X167378128Y-90700860D01*
X167493381Y-91280278D01*
X167821595Y-91771485D01*
X168119981Y-91970860D01*
X167821595Y-92170235D01*
X167493381Y-92661442D01*
X167378128Y-93240860D01*
X167493381Y-93820278D01*
X167821595Y-94311485D01*
X168119981Y-94510860D01*
X167821595Y-94710235D01*
X167493381Y-95201442D01*
X167378128Y-95780860D01*
X167493381Y-96360278D01*
X167821595Y-96851485D01*
X168119981Y-97050860D01*
X167821595Y-97250235D01*
X167493381Y-97741442D01*
X167378128Y-98320860D01*
X167493381Y-98900278D01*
X167821595Y-99391485D01*
X168119981Y-99590860D01*
X167821595Y-99790235D01*
X167493381Y-100281442D01*
X167378128Y-100860860D01*
X167493381Y-101440278D01*
X167821595Y-101931485D01*
X168119981Y-102130860D01*
X167821595Y-102330235D01*
X167493381Y-102821442D01*
X167378128Y-103400860D01*
X167493381Y-103980278D01*
X167821595Y-104471485D01*
X168119981Y-104670860D01*
X167821595Y-104870235D01*
X167493381Y-105361442D01*
X167378128Y-105940860D01*
X167493381Y-106520278D01*
X167821595Y-107011485D01*
X168119981Y-107210860D01*
X167821595Y-107410235D01*
X167493381Y-107901442D01*
X167378128Y-108480860D01*
X167493381Y-109060278D01*
X167821595Y-109551485D01*
X168312802Y-109879699D01*
X168745964Y-109965860D01*
X169038476Y-109965860D01*
X169471638Y-109879699D01*
X169962845Y-109551485D01*
X170291059Y-109060278D01*
X170406312Y-108480860D01*
X170291059Y-107901442D01*
X169962845Y-107410235D01*
X169664459Y-107210860D01*
X169962845Y-107011485D01*
X170291059Y-106520278D01*
X170406312Y-105940860D01*
X170291059Y-105361442D01*
X169962845Y-104870235D01*
X169664459Y-104670860D01*
X169962845Y-104471485D01*
X170291059Y-103980278D01*
X170406312Y-103400860D01*
X170291059Y-102821442D01*
X169962845Y-102330235D01*
X169664459Y-102130860D01*
X169962845Y-101931485D01*
X170291059Y-101440278D01*
X170406312Y-100860860D01*
X170291059Y-100281442D01*
X169962845Y-99790235D01*
X169664459Y-99590860D01*
X169962845Y-99391485D01*
X170291059Y-98900278D01*
X170406312Y-98320860D01*
X170291059Y-97741442D01*
X169962845Y-97250235D01*
X169664459Y-97050860D01*
X169962845Y-96851485D01*
X170291059Y-96360278D01*
X170406312Y-95780860D01*
X170291059Y-95201442D01*
X169962845Y-94710235D01*
X169664459Y-94510860D01*
X169962845Y-94311485D01*
X170291059Y-93820278D01*
X170406312Y-93240860D01*
X170291059Y-92661442D01*
X169962845Y-92170235D01*
X169664459Y-91970860D01*
X169962845Y-91771485D01*
X170291059Y-91280278D01*
X170406312Y-90700860D01*
X170291059Y-90121442D01*
X169962845Y-89630235D01*
X169664459Y-89430860D01*
X169962845Y-89231485D01*
X170291059Y-88740278D01*
X170406312Y-88160860D01*
X170291059Y-87581442D01*
X169962845Y-87090235D01*
X169664459Y-86890860D01*
X169962845Y-86691485D01*
X170291059Y-86200278D01*
X170406312Y-85620860D01*
X170291059Y-85041442D01*
X169962845Y-84550235D01*
X169664459Y-84350860D01*
X169962845Y-84151485D01*
X170291059Y-83660278D01*
X170373471Y-83245960D01*
X178154307Y-83245960D01*
X178265680Y-83805869D01*
X178582843Y-84280537D01*
X179057511Y-84597700D01*
X179476087Y-84680960D01*
X180558753Y-84680960D01*
X180977329Y-84597700D01*
X181451997Y-84280537D01*
X181769160Y-83805869D01*
X181823693Y-83531710D01*
X185802420Y-83531710D01*
X185802420Y-84172270D01*
X185899093Y-84405659D01*
X186077722Y-84584287D01*
X186311111Y-84680960D01*
X187351670Y-84680960D01*
X187510420Y-84522210D01*
X187510420Y-83372960D01*
X187764420Y-83372960D01*
X187764420Y-84522210D01*
X187923170Y-84680960D01*
X188963729Y-84680960D01*
X189197118Y-84584287D01*
X189375747Y-84405659D01*
X189472420Y-84172270D01*
X189472420Y-83531710D01*
X189313670Y-83372960D01*
X187764420Y-83372960D01*
X187510420Y-83372960D01*
X185961170Y-83372960D01*
X185802420Y-83531710D01*
X181823693Y-83531710D01*
X181880533Y-83245960D01*
X181769160Y-82686051D01*
X181524339Y-82319650D01*
X185802420Y-82319650D01*
X185802420Y-82960210D01*
X185961170Y-83118960D01*
X187510420Y-83118960D01*
X187510420Y-80832960D01*
X187764420Y-80832960D01*
X187764420Y-83118960D01*
X189313670Y-83118960D01*
X189472420Y-82960210D01*
X189472420Y-82319650D01*
X189375747Y-82086261D01*
X189197118Y-81907633D01*
X188963729Y-81810960D01*
X188917976Y-81810960D01*
X189141920Y-81630856D01*
X189411787Y-81137779D01*
X189429324Y-81054999D01*
X189307335Y-80832960D01*
X187764420Y-80832960D01*
X187510420Y-80832960D01*
X185967505Y-80832960D01*
X185845516Y-81054999D01*
X185863053Y-81137779D01*
X186132920Y-81630856D01*
X186356864Y-81810960D01*
X186311111Y-81810960D01*
X186077722Y-81907633D01*
X185899093Y-82086261D01*
X185802420Y-82319650D01*
X181524339Y-82319650D01*
X181451997Y-82211383D01*
X181095921Y-81973461D01*
X181521920Y-81630856D01*
X181791787Y-81137779D01*
X181809324Y-81054999D01*
X181687335Y-80832960D01*
X180144420Y-80832960D01*
X180144420Y-80852960D01*
X179890420Y-80852960D01*
X179890420Y-80832960D01*
X178347505Y-80832960D01*
X178225516Y-81054999D01*
X178243053Y-81137779D01*
X178512920Y-81630856D01*
X178938919Y-81973461D01*
X178582843Y-82211383D01*
X178265680Y-82686051D01*
X178154307Y-83245960D01*
X170373471Y-83245960D01*
X170406312Y-83080860D01*
X170291059Y-82501442D01*
X169962845Y-82010235D01*
X169664459Y-81810860D01*
X169962845Y-81611485D01*
X170291059Y-81120278D01*
X170406312Y-80540860D01*
X170291059Y-79961442D01*
X169962845Y-79470235D01*
X169664459Y-79270860D01*
X169962845Y-79071485D01*
X170291059Y-78580278D01*
X170406312Y-78000860D01*
X170291059Y-77421442D01*
X169962845Y-76930235D01*
X169664459Y-76730860D01*
X169962845Y-76531485D01*
X170291059Y-76040278D01*
X170406312Y-75460860D01*
X170386103Y-75359260D01*
X173182207Y-75359260D01*
X173293580Y-75919169D01*
X173610743Y-76393837D01*
X174085411Y-76711000D01*
X174503987Y-76794260D01*
X174786653Y-76794260D01*
X175205229Y-76711000D01*
X175679897Y-76393837D01*
X175997060Y-75919169D01*
X176055382Y-75625960D01*
X178154307Y-75625960D01*
X178265680Y-76185869D01*
X178582843Y-76660537D01*
X178935178Y-76895960D01*
X178582843Y-77131383D01*
X178265680Y-77606051D01*
X178154307Y-78165960D01*
X178265680Y-78725869D01*
X178582843Y-79200537D01*
X178938919Y-79438459D01*
X178512920Y-79781064D01*
X178243053Y-80274141D01*
X178225516Y-80356921D01*
X178347505Y-80578960D01*
X179890420Y-80578960D01*
X179890420Y-80558960D01*
X180144420Y-80558960D01*
X180144420Y-80578960D01*
X181687335Y-80578960D01*
X181809324Y-80356921D01*
X181791787Y-80274141D01*
X181521920Y-79781064D01*
X181095921Y-79438459D01*
X181451997Y-79200537D01*
X181769160Y-78725869D01*
X181811104Y-78514999D01*
X185845516Y-78514999D01*
X185863053Y-78597779D01*
X186132920Y-79090856D01*
X186562027Y-79435960D01*
X186132920Y-79781064D01*
X185863053Y-80274141D01*
X185845516Y-80356921D01*
X185967505Y-80578960D01*
X187510420Y-80578960D01*
X187510420Y-78292960D01*
X187764420Y-78292960D01*
X187764420Y-80578960D01*
X189307335Y-80578960D01*
X189429324Y-80356921D01*
X189411787Y-80274141D01*
X189141920Y-79781064D01*
X188712813Y-79435960D01*
X189141920Y-79090856D01*
X189411787Y-78597779D01*
X189429324Y-78514999D01*
X189307335Y-78292960D01*
X187764420Y-78292960D01*
X187510420Y-78292960D01*
X185967505Y-78292960D01*
X185845516Y-78514999D01*
X181811104Y-78514999D01*
X181880533Y-78165960D01*
X181769160Y-77606051D01*
X181451997Y-77131383D01*
X181099662Y-76895960D01*
X181451997Y-76660537D01*
X181769160Y-76185869D01*
X181811104Y-75974999D01*
X185845516Y-75974999D01*
X185863053Y-76057779D01*
X186132920Y-76550856D01*
X186562027Y-76895960D01*
X186132920Y-77241064D01*
X185863053Y-77734141D01*
X185845516Y-77816921D01*
X185967505Y-78038960D01*
X187510420Y-78038960D01*
X187510420Y-75752960D01*
X187764420Y-75752960D01*
X187764420Y-78038960D01*
X189307335Y-78038960D01*
X189429324Y-77816921D01*
X189411787Y-77734141D01*
X189141920Y-77241064D01*
X188712813Y-76895960D01*
X189141920Y-76550856D01*
X189411787Y-76057779D01*
X189429324Y-75974999D01*
X189307335Y-75752960D01*
X187764420Y-75752960D01*
X187510420Y-75752960D01*
X185967505Y-75752960D01*
X185845516Y-75974999D01*
X181811104Y-75974999D01*
X181880533Y-75625960D01*
X181811105Y-75276921D01*
X185845516Y-75276921D01*
X185967505Y-75498960D01*
X187510420Y-75498960D01*
X187510420Y-74190960D01*
X187764420Y-74190960D01*
X187764420Y-75498960D01*
X189307335Y-75498960D01*
X189429324Y-75276921D01*
X189411787Y-75194141D01*
X189141920Y-74701064D01*
X188703903Y-74348794D01*
X188164420Y-74190960D01*
X187764420Y-74190960D01*
X187510420Y-74190960D01*
X187110420Y-74190960D01*
X186570937Y-74348794D01*
X186132920Y-74701064D01*
X185863053Y-75194141D01*
X185845516Y-75276921D01*
X181811105Y-75276921D01*
X181769160Y-75066051D01*
X181451997Y-74591383D01*
X180977329Y-74274220D01*
X180558753Y-74190960D01*
X179476087Y-74190960D01*
X179057511Y-74274220D01*
X178582843Y-74591383D01*
X178265680Y-75066051D01*
X178154307Y-75625960D01*
X176055382Y-75625960D01*
X176108433Y-75359260D01*
X175997060Y-74799351D01*
X175679897Y-74324683D01*
X175205229Y-74007520D01*
X174786653Y-73924260D01*
X174503987Y-73924260D01*
X174085411Y-74007520D01*
X173610743Y-74324683D01*
X173293580Y-74799351D01*
X173182207Y-75359260D01*
X170386103Y-75359260D01*
X170291059Y-74881442D01*
X169962845Y-74390235D01*
X169664459Y-74190860D01*
X169962845Y-73991485D01*
X170291059Y-73500278D01*
X170406312Y-72920860D01*
X170291059Y-72341442D01*
X169962845Y-71850235D01*
X169944601Y-71838044D01*
X169989985Y-71829017D01*
X170200029Y-71688669D01*
X170340377Y-71478625D01*
X170389660Y-71230860D01*
X170389660Y-69530860D01*
X170340377Y-69283095D01*
X170200029Y-69073051D01*
X169989985Y-68932703D01*
X169742220Y-68883420D01*
X168042220Y-68883420D01*
X167794455Y-68932703D01*
X167584411Y-69073051D01*
X167444063Y-69283095D01*
X167394780Y-69530860D01*
X167394780Y-71230860D01*
X167444063Y-71478625D01*
X167584411Y-71688669D01*
X167794455Y-71829017D01*
X167839839Y-71838044D01*
X167821595Y-71850235D01*
X167493381Y-72341442D01*
X167378128Y-72920860D01*
X147553511Y-72920860D01*
X147490640Y-72604791D01*
X147173477Y-72130123D01*
X146821142Y-71894700D01*
X147173477Y-71659277D01*
X147490640Y-71184609D01*
X147602013Y-70624700D01*
X147490640Y-70064791D01*
X147173477Y-69590123D01*
X146698809Y-69272960D01*
X146280233Y-69189700D01*
X145997567Y-69189700D01*
X145578991Y-69272960D01*
X145104323Y-69590123D01*
X144787160Y-70064791D01*
X144675787Y-70624700D01*
X144685084Y-70671437D01*
X143584600Y-69570954D01*
X143584600Y-66136002D01*
X143920225Y-65911745D01*
X144248439Y-65420538D01*
X144363692Y-64841120D01*
X144248439Y-64261702D01*
X143920225Y-63770495D01*
X143429018Y-63442281D01*
X142995856Y-63356120D01*
X142703344Y-63356120D01*
X142270182Y-63442281D01*
X141778975Y-63770495D01*
X141579600Y-64068881D01*
X141380225Y-63770495D01*
X140889018Y-63442281D01*
X140455856Y-63356120D01*
X140163344Y-63356120D01*
X139730182Y-63442281D01*
X139238975Y-63770495D01*
X139039600Y-64068881D01*
X138840225Y-63770495D01*
X138349018Y-63442281D01*
X137915856Y-63356120D01*
X137623344Y-63356120D01*
X137190182Y-63442281D01*
X136698975Y-63770495D01*
X136684504Y-63792153D01*
X136617927Y-63631422D01*
X136439299Y-63452793D01*
X136205910Y-63356120D01*
X135515350Y-63356120D01*
X135356600Y-63514870D01*
X135102600Y-63514870D01*
X134943850Y-63356120D01*
X134253290Y-63356120D01*
X134019901Y-63452793D01*
X133841273Y-63631422D01*
X133744600Y-63864811D01*
X101040000Y-63864811D01*
X101040000Y-59833821D01*
X173210320Y-59833821D01*
X173210320Y-60404699D01*
X173428786Y-60932122D01*
X173832458Y-61335794D01*
X174359881Y-61554260D01*
X174930759Y-61554260D01*
X175458182Y-61335794D01*
X175861854Y-60932122D01*
X176080320Y-60404699D01*
X176080320Y-59833821D01*
X175861854Y-59306398D01*
X175458182Y-58902726D01*
X174930759Y-58684260D01*
X174359881Y-58684260D01*
X173832458Y-58902726D01*
X173428786Y-59306398D01*
X173210320Y-59833821D01*
X101040000Y-59833821D01*
X101040000Y-52355750D01*
X114085000Y-52355750D01*
X114085000Y-53046310D01*
X114181673Y-53279699D01*
X114360302Y-53458327D01*
X114593691Y-53555000D01*
X115284250Y-53555000D01*
X115443000Y-53396250D01*
X115443000Y-52197000D01*
X115697000Y-52197000D01*
X115697000Y-53396250D01*
X115855750Y-53555000D01*
X116546309Y-53555000D01*
X116779698Y-53458327D01*
X116958327Y-53279699D01*
X117055000Y-53046310D01*
X117055000Y-52355750D01*
X116896250Y-52197000D01*
X115697000Y-52197000D01*
X115443000Y-52197000D01*
X114243750Y-52197000D01*
X114085000Y-52355750D01*
X101040000Y-52355750D01*
X101040000Y-49530000D01*
X114055908Y-49530000D01*
X114171161Y-50109418D01*
X114499375Y-50600625D01*
X114521033Y-50615096D01*
X114360302Y-50681673D01*
X114181673Y-50860301D01*
X114085000Y-51093690D01*
X114085000Y-51784250D01*
X114243750Y-51943000D01*
X115443000Y-51943000D01*
X115443000Y-51923000D01*
X115697000Y-51923000D01*
X115697000Y-51943000D01*
X116896250Y-51943000D01*
X117055000Y-51784250D01*
X117055000Y-51093690D01*
X116958327Y-50860301D01*
X116779698Y-50681673D01*
X116618967Y-50615096D01*
X116640625Y-50600625D01*
X116968839Y-50109418D01*
X117057819Y-49662080D01*
X119947810Y-49662080D01*
X120082466Y-50339043D01*
X120465935Y-50912945D01*
X121039837Y-51296414D01*
X121545920Y-51397080D01*
X121887680Y-51397080D01*
X122393763Y-51296414D01*
X122967665Y-50912945D01*
X123351134Y-50339043D01*
X123485790Y-49662080D01*
X123351134Y-48985117D01*
X123068470Y-48562080D01*
X130129360Y-48562080D01*
X130129360Y-50762080D01*
X130178643Y-51009845D01*
X130318991Y-51219889D01*
X130529035Y-51360237D01*
X130776800Y-51409520D01*
X132976800Y-51409520D01*
X133224565Y-51360237D01*
X133434609Y-51219889D01*
X133574957Y-51009845D01*
X133624240Y-50762080D01*
X133624240Y-49378360D01*
X136875780Y-49378360D01*
X136875780Y-51378360D01*
X136925063Y-51626125D01*
X137065411Y-51836169D01*
X137275455Y-51976517D01*
X137523220Y-52025800D01*
X139428220Y-52025800D01*
X139675985Y-51976517D01*
X139886029Y-51836169D01*
X140022975Y-51631217D01*
X140148796Y-51754333D01*
X140642740Y-51968923D01*
X140888720Y-51848954D01*
X140888720Y-50505360D01*
X140868720Y-50505360D01*
X140868720Y-50251360D01*
X140888720Y-50251360D01*
X140888720Y-48907766D01*
X141142720Y-48907766D01*
X141142720Y-50251360D01*
X141162720Y-50251360D01*
X141162720Y-50505360D01*
X141142720Y-50505360D01*
X141142720Y-51848954D01*
X141388700Y-51968923D01*
X141882644Y-51754333D01*
X142276561Y-51368886D01*
X142411197Y-51570383D01*
X142936310Y-51921251D01*
X143555720Y-52044460D01*
X144175131Y-51921251D01*
X144700243Y-51570383D01*
X144727058Y-51530250D01*
X150876000Y-51530250D01*
X150876000Y-52370810D01*
X150972673Y-52604199D01*
X151151302Y-52782827D01*
X151384691Y-52879500D01*
X152177750Y-52879500D01*
X152336500Y-52720750D01*
X152336500Y-51371500D01*
X151034750Y-51371500D01*
X150876000Y-51530250D01*
X144727058Y-51530250D01*
X145051111Y-51045270D01*
X145143220Y-50582209D01*
X145143220Y-50174510D01*
X145132018Y-50118190D01*
X150876000Y-50118190D01*
X150876000Y-50958750D01*
X151034750Y-51117500D01*
X152336500Y-51117500D01*
X152336500Y-49768250D01*
X152590500Y-49768250D01*
X152590500Y-51117500D01*
X152610500Y-51117500D01*
X152610500Y-51371500D01*
X152590500Y-51371500D01*
X152590500Y-52720750D01*
X152749250Y-52879500D01*
X153542309Y-52879500D01*
X153775698Y-52782827D01*
X153954327Y-52604199D01*
X153988056Y-52522770D01*
X154384090Y-52787391D01*
X155003500Y-52910600D01*
X155622911Y-52787391D01*
X156148023Y-52436523D01*
X156273500Y-52248733D01*
X156398977Y-52436523D01*
X156924090Y-52787391D01*
X157543500Y-52910600D01*
X158162911Y-52787391D01*
X158688023Y-52436523D01*
X158993395Y-51979500D01*
X184850054Y-51979500D01*
X186844656Y-53974103D01*
X186765908Y-54370000D01*
X186881161Y-54949418D01*
X187209375Y-55440625D01*
X187507761Y-55640000D01*
X187209375Y-55839375D01*
X186881161Y-56330582D01*
X186765908Y-56910000D01*
X186881161Y-57489418D01*
X187209375Y-57980625D01*
X187507761Y-58180000D01*
X187209375Y-58379375D01*
X186881161Y-58870582D01*
X186765908Y-59450000D01*
X186881161Y-60029418D01*
X187209375Y-60520625D01*
X187227619Y-60532816D01*
X187182235Y-60541843D01*
X186972191Y-60682191D01*
X186831843Y-60892235D01*
X186782560Y-61140000D01*
X186782560Y-62840000D01*
X186831843Y-63087765D01*
X186972191Y-63297809D01*
X187182235Y-63438157D01*
X187430000Y-63487440D01*
X189130000Y-63487440D01*
X189377765Y-63438157D01*
X189587809Y-63297809D01*
X189728157Y-63087765D01*
X189777440Y-62840000D01*
X189777440Y-61140000D01*
X189728157Y-60892235D01*
X189587809Y-60682191D01*
X189377765Y-60541843D01*
X189332381Y-60532816D01*
X189350625Y-60520625D01*
X189678839Y-60029418D01*
X189794092Y-59450000D01*
X189678839Y-58870582D01*
X189350625Y-58379375D01*
X189052239Y-58180000D01*
X189350625Y-57980625D01*
X189678839Y-57489418D01*
X189794092Y-56910000D01*
X189678839Y-56330582D01*
X189350625Y-55839375D01*
X189052239Y-55640000D01*
X189350625Y-55440625D01*
X189678839Y-54949418D01*
X189794092Y-54370000D01*
X189678839Y-53790582D01*
X189350625Y-53299375D01*
X189031522Y-53086157D01*
X189161358Y-53025183D01*
X189551645Y-52596924D01*
X189721476Y-52186890D01*
X189600155Y-51957000D01*
X188407000Y-51957000D01*
X188407000Y-51977000D01*
X188153000Y-51977000D01*
X188153000Y-51957000D01*
X186959845Y-51957000D01*
X186941399Y-51991953D01*
X185725411Y-50775965D01*
X185684405Y-50714595D01*
X185441283Y-50552146D01*
X185226888Y-50509500D01*
X185226884Y-50509500D01*
X185154500Y-50495102D01*
X185082116Y-50509500D01*
X158993395Y-50509500D01*
X158688023Y-50052477D01*
X158162910Y-49701609D01*
X157887821Y-49646890D01*
X186838524Y-49646890D01*
X187008355Y-50056924D01*
X187398642Y-50485183D01*
X187557954Y-50560000D01*
X187398642Y-50634817D01*
X187008355Y-51063076D01*
X186838524Y-51473110D01*
X186959845Y-51703000D01*
X188153000Y-51703000D01*
X188153000Y-49417000D01*
X188407000Y-49417000D01*
X188407000Y-51703000D01*
X189600155Y-51703000D01*
X189721476Y-51473110D01*
X189551645Y-51063076D01*
X189161358Y-50634817D01*
X189002046Y-50560000D01*
X189161358Y-50485183D01*
X189551645Y-50056924D01*
X189721476Y-49646890D01*
X189600155Y-49417000D01*
X188407000Y-49417000D01*
X188153000Y-49417000D01*
X186959845Y-49417000D01*
X186838524Y-49646890D01*
X157887821Y-49646890D01*
X157543500Y-49578400D01*
X156924089Y-49701609D01*
X156398977Y-50052477D01*
X156273500Y-50240267D01*
X156148023Y-50052477D01*
X155622910Y-49701609D01*
X155003500Y-49578400D01*
X154384089Y-49701609D01*
X153988056Y-49966229D01*
X153954327Y-49884801D01*
X153775698Y-49706173D01*
X153542309Y-49609500D01*
X152749250Y-49609500D01*
X152590500Y-49768250D01*
X152336500Y-49768250D01*
X152177750Y-49609500D01*
X151384691Y-49609500D01*
X151151302Y-49706173D01*
X150972673Y-49884801D01*
X150876000Y-50118190D01*
X145132018Y-50118190D01*
X145051111Y-49711449D01*
X144700243Y-49186337D01*
X144321261Y-48933110D01*
X186838524Y-48933110D01*
X186959845Y-49163000D01*
X188153000Y-49163000D01*
X188153000Y-47969181D01*
X188407000Y-47969181D01*
X188407000Y-49163000D01*
X189600155Y-49163000D01*
X189721476Y-48933110D01*
X189551645Y-48523076D01*
X189161358Y-48094817D01*
X188636892Y-47848514D01*
X188407000Y-47969181D01*
X188153000Y-47969181D01*
X187923108Y-47848514D01*
X187398642Y-48094817D01*
X187008355Y-48523076D01*
X186838524Y-48933110D01*
X144321261Y-48933110D01*
X144175130Y-48835469D01*
X143555720Y-48712260D01*
X142936309Y-48835469D01*
X142411197Y-49186337D01*
X142276561Y-49387834D01*
X141882644Y-49002387D01*
X141388700Y-48787797D01*
X141142720Y-48907766D01*
X140888720Y-48907766D01*
X140642740Y-48787797D01*
X140148796Y-49002387D01*
X140022975Y-49125503D01*
X139886029Y-48920551D01*
X139675985Y-48780203D01*
X139428220Y-48730920D01*
X137523220Y-48730920D01*
X137275455Y-48780203D01*
X137065411Y-48920551D01*
X136925063Y-49130595D01*
X136875780Y-49378360D01*
X133624240Y-49378360D01*
X133624240Y-48562080D01*
X133574957Y-48314315D01*
X133434609Y-48104271D01*
X133224565Y-47963923D01*
X132976800Y-47914640D01*
X130776800Y-47914640D01*
X130529035Y-47963923D01*
X130318991Y-48104271D01*
X130178643Y-48314315D01*
X130129360Y-48562080D01*
X123068470Y-48562080D01*
X122967665Y-48411215D01*
X122393763Y-48027746D01*
X121887680Y-47927080D01*
X121545920Y-47927080D01*
X121039837Y-48027746D01*
X120465935Y-48411215D01*
X120082466Y-48985117D01*
X119947810Y-49662080D01*
X117057819Y-49662080D01*
X117084092Y-49530000D01*
X116968839Y-48950582D01*
X116640625Y-48459375D01*
X116149418Y-48131161D01*
X115716256Y-48045000D01*
X115423744Y-48045000D01*
X114990582Y-48131161D01*
X114499375Y-48459375D01*
X114171161Y-48950582D01*
X114055908Y-49530000D01*
X101040000Y-49530000D01*
X101040000Y-43974143D01*
X138725475Y-43974143D01*
X138752662Y-44544374D01*
X138918576Y-44944925D01*
X139164695Y-45019059D01*
X139986130Y-44197625D01*
X140002477Y-44540488D01*
X139344301Y-45198665D01*
X139418435Y-45444784D01*
X139955663Y-45637885D01*
X140525894Y-45610698D01*
X140806574Y-45494436D01*
X141205663Y-45637885D01*
X141775894Y-45610698D01*
X142176445Y-45444784D01*
X142250579Y-45198665D01*
X141577155Y-44525240D01*
X141619405Y-44407697D01*
X141609421Y-44198296D01*
X142430185Y-45019059D01*
X142676304Y-44944925D01*
X142678730Y-44938174D01*
X142705906Y-45003782D01*
X143109578Y-45407454D01*
X143637001Y-45625920D01*
X144207879Y-45625920D01*
X144547440Y-45485269D01*
X144887001Y-45625920D01*
X145457879Y-45625920D01*
X145985302Y-45407454D01*
X146388974Y-45003782D01*
X146607440Y-44476359D01*
X146607440Y-43905481D01*
X146555921Y-43781103D01*
X149378235Y-43781103D01*
X149405422Y-44351334D01*
X149571336Y-44751885D01*
X149817455Y-44826019D01*
X150638890Y-44004585D01*
X150655237Y-44347448D01*
X149997061Y-45005625D01*
X150071195Y-45251744D01*
X150608423Y-45444845D01*
X151178654Y-45417658D01*
X151459334Y-45301396D01*
X151858423Y-45444845D01*
X152428654Y-45417658D01*
X152829205Y-45251744D01*
X152903339Y-45005625D01*
X152229915Y-44332200D01*
X152272165Y-44214657D01*
X152262181Y-44005256D01*
X153082945Y-44826019D01*
X153329064Y-44751885D01*
X153331490Y-44745134D01*
X153358666Y-44810742D01*
X153762338Y-45214414D01*
X154289761Y-45432880D01*
X154860639Y-45432880D01*
X155200200Y-45292229D01*
X155539761Y-45432880D01*
X156110639Y-45432880D01*
X156638062Y-45214414D01*
X157041734Y-44810742D01*
X157260200Y-44283319D01*
X157260200Y-43712441D01*
X157041734Y-43185018D01*
X156638062Y-42781346D01*
X156110639Y-42562880D01*
X155539761Y-42562880D01*
X155200200Y-42703531D01*
X154860639Y-42562880D01*
X154289761Y-42562880D01*
X153762338Y-42781346D01*
X153358666Y-43185018D01*
X153331675Y-43250179D01*
X153329064Y-43243875D01*
X153082945Y-43169741D01*
X152261510Y-43991175D01*
X152245163Y-43648312D01*
X152903339Y-42990135D01*
X152829205Y-42744016D01*
X152291977Y-42550915D01*
X151721746Y-42578102D01*
X151441066Y-42694364D01*
X151041977Y-42550915D01*
X150471746Y-42578102D01*
X150071195Y-42744016D01*
X149997061Y-42990135D01*
X150670485Y-43663560D01*
X150628235Y-43781103D01*
X150638219Y-43990504D01*
X149817455Y-43169741D01*
X149571336Y-43243875D01*
X149378235Y-43781103D01*
X146555921Y-43781103D01*
X146388974Y-43378058D01*
X145985302Y-42974386D01*
X145457879Y-42755920D01*
X144887001Y-42755920D01*
X144547440Y-42896571D01*
X144207879Y-42755920D01*
X143637001Y-42755920D01*
X143109578Y-42974386D01*
X142705906Y-43378058D01*
X142678915Y-43443219D01*
X142676304Y-43436915D01*
X142430185Y-43362781D01*
X141608750Y-44184215D01*
X141592403Y-43841352D01*
X142250579Y-43183175D01*
X142176445Y-42937056D01*
X141639217Y-42743955D01*
X141068986Y-42771142D01*
X140788306Y-42887404D01*
X140389217Y-42743955D01*
X139818986Y-42771142D01*
X139418435Y-42937056D01*
X139344301Y-43183175D01*
X140017725Y-43856600D01*
X139975475Y-43974143D01*
X139985459Y-44183544D01*
X139164695Y-43362781D01*
X138918576Y-43436915D01*
X138725475Y-43974143D01*
X101040000Y-43974143D01*
X101040000Y-36707452D01*
X150126433Y-36707452D01*
X150225096Y-36974307D01*
X150834821Y-37200828D01*
X151484820Y-37176776D01*
X151973624Y-36974307D01*
X152072287Y-36707452D01*
X151099360Y-35734525D01*
X150126433Y-36707452D01*
X101040000Y-36707452D01*
X101040000Y-35960692D01*
X138818353Y-35960692D01*
X138917016Y-36227547D01*
X139526741Y-36454068D01*
X140176740Y-36430016D01*
X140665544Y-36227547D01*
X140764207Y-35960692D01*
X139791280Y-34987765D01*
X138818353Y-35960692D01*
X101040000Y-35960692D01*
X101040000Y-34543621D01*
X138145372Y-34543621D01*
X138169424Y-35193620D01*
X138371893Y-35682424D01*
X138638748Y-35781087D01*
X139611675Y-34808160D01*
X139970885Y-34808160D01*
X140943812Y-35781087D01*
X141210667Y-35682424D01*
X141437188Y-35072699D01*
X141413136Y-34422700D01*
X141210667Y-33933896D01*
X140943812Y-33835233D01*
X139970885Y-34808160D01*
X139611675Y-34808160D01*
X138638748Y-33835233D01*
X138371893Y-33933896D01*
X138145372Y-34543621D01*
X101040000Y-34543621D01*
X101040000Y-33655628D01*
X138818353Y-33655628D01*
X139791280Y-34628555D01*
X140611675Y-33808160D01*
X141943840Y-33808160D01*
X141943840Y-35808160D01*
X141993123Y-36055925D01*
X142133471Y-36265969D01*
X142343515Y-36406317D01*
X142591280Y-36455600D01*
X144591280Y-36455600D01*
X144839045Y-36406317D01*
X145049089Y-36265969D01*
X145189437Y-36055925D01*
X145238720Y-35808160D01*
X145238720Y-35290381D01*
X149453452Y-35290381D01*
X149477504Y-35940380D01*
X149679973Y-36429184D01*
X149946828Y-36527847D01*
X150919755Y-35554920D01*
X151278965Y-35554920D01*
X152251892Y-36527847D01*
X152518747Y-36429184D01*
X152745268Y-35819459D01*
X152721216Y-35169460D01*
X152518747Y-34680656D01*
X152251892Y-34581993D01*
X151278965Y-35554920D01*
X150919755Y-35554920D01*
X149946828Y-34581993D01*
X149679973Y-34680656D01*
X149453452Y-35290381D01*
X145238720Y-35290381D01*
X145238720Y-34402388D01*
X150126433Y-34402388D01*
X151099360Y-35375315D01*
X151919755Y-34554920D01*
X153251920Y-34554920D01*
X153251920Y-36554920D01*
X153301203Y-36802685D01*
X153441551Y-37012729D01*
X153651595Y-37153077D01*
X153899360Y-37202360D01*
X155899360Y-37202360D01*
X156147125Y-37153077D01*
X156357169Y-37012729D01*
X156497517Y-36802685D01*
X156546800Y-36554920D01*
X156546800Y-34554920D01*
X156497517Y-34307155D01*
X156357169Y-34097111D01*
X156147125Y-33956763D01*
X155899360Y-33907480D01*
X153899360Y-33907480D01*
X153651595Y-33956763D01*
X153441551Y-34097111D01*
X153301203Y-34307155D01*
X153251920Y-34554920D01*
X151919755Y-34554920D01*
X152072287Y-34402388D01*
X151973624Y-34135533D01*
X151363899Y-33909012D01*
X150713900Y-33933064D01*
X150225096Y-34135533D01*
X150126433Y-34402388D01*
X145238720Y-34402388D01*
X145238720Y-33808160D01*
X145189437Y-33560395D01*
X145049089Y-33350351D01*
X144839045Y-33210003D01*
X144591280Y-33160720D01*
X142591280Y-33160720D01*
X142343515Y-33210003D01*
X142133471Y-33350351D01*
X141993123Y-33560395D01*
X141943840Y-33808160D01*
X140611675Y-33808160D01*
X140764207Y-33655628D01*
X140665544Y-33388773D01*
X140055819Y-33162252D01*
X139405820Y-33186304D01*
X138917016Y-33388773D01*
X138818353Y-33655628D01*
X101040000Y-33655628D01*
X101040000Y-26110000D01*
X202490001Y-26110000D01*
X202490000Y-126290000D01*
X202490000Y-126290000D01*
G37*
X202490000Y-126290000D02*
X101040000Y-126290000D01*
X101040000Y-72986900D01*
X109623608Y-72986900D01*
X109738861Y-73566318D01*
X110067075Y-74057525D01*
X110365461Y-74256900D01*
X110067075Y-74456275D01*
X109738861Y-74947482D01*
X109623608Y-75526900D01*
X109738861Y-76106318D01*
X110067075Y-76597525D01*
X110365461Y-76796900D01*
X110067075Y-76996275D01*
X109738861Y-77487482D01*
X109623608Y-78066900D01*
X109738861Y-78646318D01*
X110067075Y-79137525D01*
X110365461Y-79336900D01*
X110067075Y-79536275D01*
X109738861Y-80027482D01*
X109623608Y-80606900D01*
X109738861Y-81186318D01*
X110067075Y-81677525D01*
X110365461Y-81876900D01*
X110067075Y-82076275D01*
X109738861Y-82567482D01*
X109623608Y-83146900D01*
X109738861Y-83726318D01*
X110067075Y-84217525D01*
X110365461Y-84416900D01*
X110067075Y-84616275D01*
X109738861Y-85107482D01*
X109623608Y-85686900D01*
X109738861Y-86266318D01*
X110067075Y-86757525D01*
X110365461Y-86956900D01*
X110067075Y-87156275D01*
X109738861Y-87647482D01*
X109623608Y-88226900D01*
X109738861Y-88806318D01*
X110067075Y-89297525D01*
X110365461Y-89496900D01*
X110067075Y-89696275D01*
X109738861Y-90187482D01*
X109623608Y-90766900D01*
X109738861Y-91346318D01*
X110067075Y-91837525D01*
X110365461Y-92036900D01*
X110067075Y-92236275D01*
X109738861Y-92727482D01*
X109623608Y-93306900D01*
X109738861Y-93886318D01*
X110067075Y-94377525D01*
X110365461Y-94576900D01*
X110067075Y-94776275D01*
X109738861Y-95267482D01*
X109623608Y-95846900D01*
X109738861Y-96426318D01*
X110067075Y-96917525D01*
X110365461Y-97116900D01*
X110067075Y-97316275D01*
X109738861Y-97807482D01*
X109623608Y-98386900D01*
X109738861Y-98966318D01*
X110067075Y-99457525D01*
X110365461Y-99656900D01*
X110067075Y-99856275D01*
X109738861Y-100347482D01*
X109623608Y-100926900D01*
X109738861Y-101506318D01*
X110067075Y-101997525D01*
X110365461Y-102196900D01*
X110067075Y-102396275D01*
X109738861Y-102887482D01*
X109623608Y-103466900D01*
X109738861Y-104046318D01*
X110067075Y-104537525D01*
X110365461Y-104736900D01*
X110067075Y-104936275D01*
X109738861Y-105427482D01*
X109623608Y-106006900D01*
X109738861Y-106586318D01*
X110067075Y-107077525D01*
X110365461Y-107276900D01*
X110067075Y-107476275D01*
X109738861Y-107967482D01*
X109623608Y-108546900D01*
X109738861Y-109126318D01*
X110067075Y-109617525D01*
X110558282Y-109945739D01*
X110991444Y-110031900D01*
X111283956Y-110031900D01*
X111717118Y-109945739D01*
X112208325Y-109617525D01*
X112536539Y-109126318D01*
X112651792Y-108546900D01*
X112536539Y-107967482D01*
X112208325Y-107476275D01*
X111909939Y-107276900D01*
X112208325Y-107077525D01*
X112536539Y-106586318D01*
X112651792Y-106006900D01*
X112536539Y-105427482D01*
X112208325Y-104936275D01*
X111909939Y-104736900D01*
X112208325Y-104537525D01*
X112536539Y-104046318D01*
X112651792Y-103466900D01*
X112536539Y-102887482D01*
X112208325Y-102396275D01*
X111909939Y-102196900D01*
X112208325Y-101997525D01*
X112536539Y-101506318D01*
X112651792Y-100926900D01*
X112536539Y-100347482D01*
X112208325Y-99856275D01*
X111909939Y-99656900D01*
X112208325Y-99457525D01*
X112536539Y-98966318D01*
X112651792Y-98386900D01*
X112536539Y-97807482D01*
X112208325Y-97316275D01*
X111909939Y-97116900D01*
X112208325Y-96917525D01*
X112536539Y-96426318D01*
X112616425Y-96024700D01*
X129435787Y-96024700D01*
X129547160Y-96584609D01*
X129864323Y-97059277D01*
X130216658Y-97294700D01*
X129864323Y-97530123D01*
X129547160Y-98004791D01*
X129435787Y-98564700D01*
X129547160Y-99124609D01*
X129864323Y-99599277D01*
X130216658Y-99834700D01*
X129864323Y-100070123D01*
X129547160Y-100544791D01*
X129435787Y-101104700D01*
X129547160Y-101664609D01*
X129864323Y-102139277D01*
X130216658Y-102374700D01*
X129864323Y-102610123D01*
X129547160Y-103084791D01*
X129435787Y-103644700D01*
X129547160Y-104204609D01*
X129864323Y-104679277D01*
X130216658Y-104914700D01*
X129864323Y-105150123D01*
X129547160Y-105624791D01*
X129435787Y-106184700D01*
X129547160Y-106744609D01*
X129864323Y-107219277D01*
X130216658Y-107454700D01*
X129864323Y-107690123D01*
X129547160Y-108164791D01*
X129435787Y-108724700D01*
X129547160Y-109284609D01*
X129864323Y-109759277D01*
X130216658Y-109994700D01*
X129864323Y-110230123D01*
X129547160Y-110704791D01*
X129435787Y-111264700D01*
X129547160Y-111824609D01*
X129864323Y-112299277D01*
X130216658Y-112534700D01*
X129864323Y-112770123D01*
X129547160Y-113244791D01*
X129435787Y-113804700D01*
X129547160Y-114364609D01*
X129864323Y-114839277D01*
X130216658Y-115074700D01*
X129864323Y-115310123D01*
X129547160Y-115784791D01*
X129435787Y-116344700D01*
X129547160Y-116904609D01*
X129864323Y-117379277D01*
X130216658Y-117614700D01*
X129864323Y-117850123D01*
X129547160Y-118324791D01*
X129435787Y-118884700D01*
X129547160Y-119444609D01*
X129864323Y-119919277D01*
X130338991Y-120236440D01*
X130757567Y-120319700D01*
X131040233Y-120319700D01*
X131458809Y-120236440D01*
X131933477Y-119919277D01*
X132250640Y-119444609D01*
X132362013Y-118884700D01*
X132250640Y-118324791D01*
X131933477Y-117850123D01*
X131581142Y-117614700D01*
X131933477Y-117379277D01*
X132250640Y-116904609D01*
X132362013Y-116344700D01*
X132250640Y-115784791D01*
X131933477Y-115310123D01*
X131581142Y-115074700D01*
X131933477Y-114839277D01*
X132250640Y-114364609D01*
X132362013Y-113804700D01*
X132250640Y-113244791D01*
X131933477Y-112770123D01*
X131581142Y-112534700D01*
X131933477Y-112299277D01*
X132250640Y-111824609D01*
X132362013Y-111264700D01*
X132250640Y-110704791D01*
X131933477Y-110230123D01*
X131581142Y-109994700D01*
X131933477Y-109759277D01*
X132250640Y-109284609D01*
X132362013Y-108724700D01*
X132250640Y-108164791D01*
X131933477Y-107690123D01*
X131581142Y-107454700D01*
X131933477Y-107219277D01*
X132250640Y-106744609D01*
X132362013Y-106184700D01*
X132250640Y-105624791D01*
X131933477Y-105150123D01*
X131581142Y-104914700D01*
X131933477Y-104679277D01*
X132250640Y-104204609D01*
X132362013Y-103644700D01*
X132250640Y-103084791D01*
X131933477Y-102610123D01*
X131581142Y-102374700D01*
X131933477Y-102139277D01*
X132250640Y-101664609D01*
X132362013Y-101104700D01*
X144675787Y-101104700D01*
X144787160Y-101664609D01*
X145104323Y-102139277D01*
X145456658Y-102374700D01*
X145104323Y-102610123D01*
X144787160Y-103084791D01*
X144675787Y-103644700D01*
X144787160Y-104204609D01*
X145104323Y-104679277D01*
X145456658Y-104914700D01*
X145104323Y-105150123D01*
X144787160Y-105624791D01*
X144675787Y-106184700D01*
X144787160Y-106744609D01*
X145104323Y-107219277D01*
X145456658Y-107454700D01*
X145104323Y-107690123D01*
X144787160Y-108164791D01*
X144675787Y-108724700D01*
X144787160Y-109284609D01*
X145104323Y-109759277D01*
X145456658Y-109994700D01*
X145104323Y-110230123D01*
X144787160Y-110704791D01*
X144675787Y-111264700D01*
X144787160Y-111824609D01*
X145104323Y-112299277D01*
X145456658Y-112534700D01*
X145104323Y-112770123D01*
X144787160Y-113244791D01*
X144675787Y-113804700D01*
X144787160Y-114364609D01*
X145104323Y-114839277D01*
X145456658Y-115074700D01*
X145104323Y-115310123D01*
X144787160Y-115784791D01*
X144675787Y-116344700D01*
X144787160Y-116904609D01*
X145104323Y-117379277D01*
X145456658Y-117614700D01*
X145104323Y-117850123D01*
X144787160Y-118324791D01*
X144675787Y-118884700D01*
X144787160Y-119444609D01*
X145104323Y-119919277D01*
X145578991Y-120236440D01*
X145997567Y-120319700D01*
X146280233Y-120319700D01*
X146698809Y-120236440D01*
X147173477Y-119919277D01*
X147490640Y-119444609D01*
X147602013Y-118884700D01*
X147490640Y-118324791D01*
X147173477Y-117850123D01*
X146821142Y-117614700D01*
X147173477Y-117379277D01*
X147490640Y-116904609D01*
X147602013Y-116344700D01*
X147490640Y-115784791D01*
X147173477Y-115310123D01*
X146821142Y-115074700D01*
X147173477Y-114839277D01*
X147490640Y-114364609D01*
X147602013Y-113804700D01*
X147490640Y-113244791D01*
X147173477Y-112770123D01*
X146821142Y-112534700D01*
X147173477Y-112299277D01*
X147490640Y-111824609D01*
X147602013Y-111264700D01*
X147490640Y-110704791D01*
X147173477Y-110230123D01*
X146821142Y-109994700D01*
X147173477Y-109759277D01*
X147490640Y-109284609D01*
X147602013Y-108724700D01*
X147490640Y-108164791D01*
X147173477Y-107690123D01*
X146821142Y-107454700D01*
X147173477Y-107219277D01*
X147490640Y-106744609D01*
X147602013Y-106184700D01*
X147490640Y-105624791D01*
X147173477Y-105150123D01*
X146821142Y-104914700D01*
X147173477Y-104679277D01*
X147490640Y-104204609D01*
X147602013Y-103644700D01*
X147490640Y-103084791D01*
X147173477Y-102610123D01*
X146821142Y-102374700D01*
X147173477Y-102139277D01*
X147490640Y-101664609D01*
X147602013Y-101104700D01*
X147490640Y-100544791D01*
X147173477Y-100070123D01*
X146789792Y-99813753D01*
X146994034Y-99717089D01*
X147369941Y-99302123D01*
X147530804Y-98913739D01*
X147408815Y-98691700D01*
X146265900Y-98691700D01*
X146265900Y-98711700D01*
X146011900Y-98711700D01*
X146011900Y-98691700D01*
X144868985Y-98691700D01*
X144746996Y-98913739D01*
X144907859Y-99302123D01*
X145283766Y-99717089D01*
X145488008Y-99813753D01*
X145104323Y-100070123D01*
X144787160Y-100544791D01*
X144675787Y-101104700D01*
X132362013Y-101104700D01*
X132250640Y-100544791D01*
X131933477Y-100070123D01*
X131581142Y-99834700D01*
X131933477Y-99599277D01*
X132250640Y-99124609D01*
X132362013Y-98564700D01*
X132250640Y-98004791D01*
X131933477Y-97530123D01*
X131581142Y-97294700D01*
X131933477Y-97059277D01*
X132250640Y-96584609D01*
X132362013Y-96024700D01*
X132250640Y-95464791D01*
X131933477Y-94990123D01*
X131549792Y-94733753D01*
X131754034Y-94637089D01*
X132129941Y-94222123D01*
X132290804Y-93833739D01*
X132168815Y-93611700D01*
X131025900Y-93611700D01*
X131025900Y-93631700D01*
X130771900Y-93631700D01*
X130771900Y-93611700D01*
X129628985Y-93611700D01*
X129506996Y-93833739D01*
X129667859Y-94222123D01*
X130043766Y-94637089D01*
X130248008Y-94733753D01*
X129864323Y-94990123D01*
X129547160Y-95464791D01*
X129435787Y-96024700D01*
X112616425Y-96024700D01*
X112651792Y-95846900D01*
X112536539Y-95267482D01*
X112208325Y-94776275D01*
X111909939Y-94576900D01*
X112208325Y-94377525D01*
X112536539Y-93886318D01*
X112651792Y-93306900D01*
X112536539Y-92727482D01*
X112208325Y-92236275D01*
X111909939Y-92036900D01*
X112208325Y-91837525D01*
X112536539Y-91346318D01*
X112546997Y-91293739D01*
X129506996Y-91293739D01*
X129667859Y-91682123D01*
X130043766Y-92097089D01*
X130292267Y-92214700D01*
X130043766Y-92332311D01*
X129667859Y-92747277D01*
X129506996Y-93135661D01*
X129628985Y-93357700D01*
X130771900Y-93357700D01*
X130771900Y-91071700D01*
X131025900Y-91071700D01*
X131025900Y-93357700D01*
X132168815Y-93357700D01*
X132290804Y-93135661D01*
X132129941Y-92747277D01*
X131754034Y-92332311D01*
X131505533Y-92214700D01*
X131754034Y-92097089D01*
X132129941Y-91682123D01*
X132290804Y-91293739D01*
X132168815Y-91071700D01*
X131025900Y-91071700D01*
X130771900Y-91071700D01*
X129628985Y-91071700D01*
X129506996Y-91293739D01*
X112546997Y-91293739D01*
X112651792Y-90766900D01*
X112536539Y-90187482D01*
X112208325Y-89696275D01*
X111909939Y-89496900D01*
X112208325Y-89297525D01*
X112536539Y-88806318D01*
X112651792Y-88226900D01*
X112536539Y-87647482D01*
X112208325Y-87156275D01*
X111909939Y-86956900D01*
X112208325Y-86757525D01*
X112536539Y-86266318D01*
X112651792Y-85686900D01*
X112536539Y-85107482D01*
X112208325Y-84616275D01*
X111909939Y-84416900D01*
X112208325Y-84217525D01*
X112536539Y-83726318D01*
X112651792Y-83146900D01*
X112536539Y-82567482D01*
X112208325Y-82076275D01*
X111909939Y-81876900D01*
X112208325Y-81677525D01*
X112536539Y-81186318D01*
X112651792Y-80606900D01*
X112536539Y-80027482D01*
X112208325Y-79536275D01*
X111909939Y-79336900D01*
X112208325Y-79137525D01*
X112536539Y-78646318D01*
X112651792Y-78066900D01*
X112536539Y-77487482D01*
X112208325Y-76996275D01*
X111909939Y-76796900D01*
X112208325Y-76597525D01*
X112536539Y-76106318D01*
X112651792Y-75526900D01*
X112536539Y-74947482D01*
X112208325Y-74456275D01*
X111909939Y-74256900D01*
X112208325Y-74057525D01*
X112536539Y-73566318D01*
X112616425Y-73164700D01*
X129435787Y-73164700D01*
X129547160Y-73724609D01*
X129864323Y-74199277D01*
X130216658Y-74434700D01*
X129864323Y-74670123D01*
X129547160Y-75144791D01*
X129435787Y-75704700D01*
X129547160Y-76264609D01*
X129864323Y-76739277D01*
X130216658Y-76974700D01*
X129864323Y-77210123D01*
X129547160Y-77684791D01*
X129435787Y-78244700D01*
X129547160Y-78804609D01*
X129864323Y-79279277D01*
X130216658Y-79514700D01*
X129864323Y-79750123D01*
X129547160Y-80224791D01*
X129435787Y-80784700D01*
X129547160Y-81344609D01*
X129864323Y-81819277D01*
X130216658Y-82054700D01*
X129864323Y-82290123D01*
X129547160Y-82764791D01*
X129435787Y-83324700D01*
X129547160Y-83884609D01*
X129864323Y-84359277D01*
X130216658Y-84594700D01*
X129864323Y-84830123D01*
X129547160Y-85304791D01*
X129435787Y-85864700D01*
X129547160Y-86424609D01*
X129864323Y-86899277D01*
X130216658Y-87134700D01*
X129864323Y-87370123D01*
X129547160Y-87844791D01*
X129435787Y-88404700D01*
X129547160Y-88964609D01*
X129864323Y-89439277D01*
X130248008Y-89695647D01*
X130043766Y-89792311D01*
X129667859Y-90207277D01*
X129506996Y-90595661D01*
X129628985Y-90817700D01*
X130771900Y-90817700D01*
X130771900Y-90797700D01*
X131025900Y-90797700D01*
X131025900Y-90817700D01*
X132168815Y-90817700D01*
X132290804Y-90595661D01*
X132129941Y-90207277D01*
X131754034Y-89792311D01*
X131549792Y-89695647D01*
X131933477Y-89439277D01*
X132250640Y-88964609D01*
X132362013Y-88404700D01*
X132250640Y-87844791D01*
X131933477Y-87370123D01*
X131581142Y-87134700D01*
X131933477Y-86899277D01*
X132250640Y-86424609D01*
X132362013Y-85864700D01*
X132250640Y-85304791D01*
X131933477Y-84830123D01*
X131581142Y-84594700D01*
X131933477Y-84359277D01*
X132250640Y-83884609D01*
X132362013Y-83324700D01*
X132250640Y-82764791D01*
X131933477Y-82290123D01*
X131581142Y-82054700D01*
X131933477Y-81819277D01*
X132250640Y-81344609D01*
X132362013Y-80784700D01*
X132250640Y-80224791D01*
X131933477Y-79750123D01*
X131581142Y-79514700D01*
X131933477Y-79279277D01*
X132250640Y-78804609D01*
X132362013Y-78244700D01*
X132250640Y-77684791D01*
X131933477Y-77210123D01*
X131581142Y-76974700D01*
X131933477Y-76739277D01*
X132250640Y-76264609D01*
X132362013Y-75704700D01*
X132250640Y-75144791D01*
X131933477Y-74670123D01*
X131581142Y-74434700D01*
X131933477Y-74199277D01*
X132250640Y-73724609D01*
X132362013Y-73164700D01*
X132250640Y-72604791D01*
X131933477Y-72130123D01*
X131812794Y-72049485D01*
X131946665Y-72022857D01*
X132156709Y-71882509D01*
X132297057Y-71672465D01*
X132346340Y-71424700D01*
X132346340Y-69824700D01*
X132297057Y-69576935D01*
X132156709Y-69366891D01*
X131946665Y-69226543D01*
X131698900Y-69177260D01*
X130098900Y-69177260D01*
X129851135Y-69226543D01*
X129641091Y-69366891D01*
X129500743Y-69576935D01*
X129451460Y-69824700D01*
X129451460Y-71424700D01*
X129500743Y-71672465D01*
X129641091Y-71882509D01*
X129851135Y-72022857D01*
X129985006Y-72049485D01*
X129864323Y-72130123D01*
X129547160Y-72604791D01*
X129435787Y-73164700D01*
X112616425Y-73164700D01*
X112651792Y-72986900D01*
X112536539Y-72407482D01*
X112208325Y-71916275D01*
X112190081Y-71904084D01*
X112235465Y-71895057D01*
X112445509Y-71754709D01*
X112585857Y-71544665D01*
X112635140Y-71296900D01*
X112635140Y-69596900D01*
X112585857Y-69349135D01*
X112445509Y-69139091D01*
X112235465Y-68998743D01*
X111987700Y-68949460D01*
X110287700Y-68949460D01*
X110039935Y-68998743D01*
X109829891Y-69139091D01*
X109689543Y-69349135D01*
X109640260Y-69596900D01*
X109640260Y-71296900D01*
X109689543Y-71544665D01*
X109829891Y-71754709D01*
X110039935Y-71895057D01*
X110085319Y-71904084D01*
X110067075Y-71916275D01*
X109738861Y-72407482D01*
X109623608Y-72986900D01*
X101040000Y-72986900D01*
X101040000Y-65126870D01*
X133744600Y-65126870D01*
X133744600Y-65817429D01*
X133841273Y-66050818D01*
X134019901Y-66229447D01*
X134253290Y-66326120D01*
X134943850Y-66326120D01*
X135102600Y-66167370D01*
X135102600Y-64968120D01*
X133903350Y-64968120D01*
X133744600Y-65126870D01*
X101040000Y-65126870D01*
X101040000Y-63864811D01*
X133744600Y-63864811D01*
X133744600Y-64555370D01*
X133903350Y-64714120D01*
X135102600Y-64714120D01*
X135102600Y-63514870D01*
X135356600Y-63514870D01*
X135356600Y-64714120D01*
X135376600Y-64714120D01*
X135376600Y-64968120D01*
X135356600Y-64968120D01*
X135356600Y-66167370D01*
X135515350Y-66326120D01*
X136205910Y-66326120D01*
X136439299Y-66229447D01*
X136617927Y-66050818D01*
X136684504Y-65890087D01*
X136698975Y-65911745D01*
X137190182Y-66239959D01*
X137623344Y-66326120D01*
X137915856Y-66326120D01*
X138349018Y-66239959D01*
X138840225Y-65911745D01*
X139039600Y-65613359D01*
X139238975Y-65911745D01*
X139730182Y-66239959D01*
X140163344Y-66326120D01*
X140455856Y-66326120D01*
X140889018Y-66239959D01*
X141380225Y-65911745D01*
X141579600Y-65613359D01*
X141778975Y-65911745D01*
X142114600Y-66136003D01*
X142114601Y-69803011D01*
X142100202Y-69875400D01*
X142157246Y-70162182D01*
X142157247Y-70162183D01*
X142319696Y-70405305D01*
X142381063Y-70446309D01*
X144746078Y-72811325D01*
X144675787Y-73164700D01*
X144787160Y-73724609D01*
X145104323Y-74199277D01*
X145456658Y-74434700D01*
X145104323Y-74670123D01*
X144787160Y-75144791D01*
X144675787Y-75704700D01*
X144787160Y-76264609D01*
X145104323Y-76739277D01*
X145456658Y-76974700D01*
X145104323Y-77210123D01*
X144787160Y-77684791D01*
X144675787Y-78244700D01*
X144787160Y-78804609D01*
X145104323Y-79279277D01*
X145456658Y-79514700D01*
X145104323Y-79750123D01*
X144787160Y-80224791D01*
X144675787Y-80784700D01*
X144787160Y-81344609D01*
X145104323Y-81819277D01*
X145456658Y-82054700D01*
X145104323Y-82290123D01*
X144787160Y-82764791D01*
X144675787Y-83324700D01*
X144787160Y-83884609D01*
X145104323Y-84359277D01*
X145456658Y-84594700D01*
X145104323Y-84830123D01*
X144787160Y-85304791D01*
X144675787Y-85864700D01*
X144787160Y-86424609D01*
X145104323Y-86899277D01*
X145456658Y-87134700D01*
X145104323Y-87370123D01*
X144787160Y-87844791D01*
X144675787Y-88404700D01*
X144787160Y-88964609D01*
X145104323Y-89439277D01*
X145456658Y-89674700D01*
X145104323Y-89910123D01*
X144787160Y-90384791D01*
X144675787Y-90944700D01*
X144787160Y-91504609D01*
X145104323Y-91979277D01*
X145456658Y-92214700D01*
X145104323Y-92450123D01*
X144787160Y-92924791D01*
X144675787Y-93484700D01*
X144787160Y-94044609D01*
X145104323Y-94519277D01*
X145456658Y-94754700D01*
X145104323Y-94990123D01*
X144787160Y-95464791D01*
X144675787Y-96024700D01*
X144787160Y-96584609D01*
X145104323Y-97059277D01*
X145488008Y-97315647D01*
X145283766Y-97412311D01*
X144907859Y-97827277D01*
X144746996Y-98215661D01*
X144868985Y-98437700D01*
X146011900Y-98437700D01*
X146011900Y-98417700D01*
X146265900Y-98417700D01*
X146265900Y-98437700D01*
X147408815Y-98437700D01*
X147530804Y-98215661D01*
X147369941Y-97827277D01*
X146994034Y-97412311D01*
X146789792Y-97315647D01*
X147173477Y-97059277D01*
X147490640Y-96584609D01*
X147548186Y-96295306D01*
X150189500Y-96295306D01*
X150189500Y-96846294D01*
X150400353Y-97355340D01*
X150789960Y-97744947D01*
X151299006Y-97955800D01*
X151849994Y-97955800D01*
X152359040Y-97744947D01*
X152748647Y-97355340D01*
X152959500Y-96846294D01*
X152959500Y-96295306D01*
X152748647Y-95786260D01*
X152359040Y-95396653D01*
X151849994Y-95185800D01*
X151299006Y-95185800D01*
X150789960Y-95396653D01*
X150400353Y-95786260D01*
X150189500Y-96295306D01*
X147548186Y-96295306D01*
X147602013Y-96024700D01*
X147490640Y-95464791D01*
X147173477Y-94990123D01*
X146821142Y-94754700D01*
X147173477Y-94519277D01*
X147490640Y-94044609D01*
X147602013Y-93484700D01*
X147490640Y-92924791D01*
X147173477Y-92450123D01*
X146821142Y-92214700D01*
X147173477Y-91979277D01*
X147490640Y-91504609D01*
X147512381Y-91395306D01*
X150189500Y-91395306D01*
X150189500Y-91946294D01*
X150400353Y-92455340D01*
X150789960Y-92844947D01*
X151299006Y-93055800D01*
X151849994Y-93055800D01*
X152359040Y-92844947D01*
X152748647Y-92455340D01*
X152959500Y-91946294D01*
X152959500Y-91395306D01*
X152748647Y-90886260D01*
X152359040Y-90496653D01*
X151849994Y-90285800D01*
X151299006Y-90285800D01*
X150789960Y-90496653D01*
X150400353Y-90886260D01*
X150189500Y-91395306D01*
X147512381Y-91395306D01*
X147602013Y-90944700D01*
X147490640Y-90384791D01*
X147173477Y-89910123D01*
X146821142Y-89674700D01*
X147173477Y-89439277D01*
X147490640Y-88964609D01*
X147602013Y-88404700D01*
X147490640Y-87844791D01*
X147173477Y-87370123D01*
X146821142Y-87134700D01*
X147173477Y-86899277D01*
X147490640Y-86424609D01*
X147602013Y-85864700D01*
X147490640Y-85304791D01*
X147173477Y-84830123D01*
X146821142Y-84594700D01*
X147173477Y-84359277D01*
X147490640Y-83884609D01*
X147602013Y-83324700D01*
X147490640Y-82764791D01*
X147173477Y-82290123D01*
X146821142Y-82054700D01*
X147173477Y-81819277D01*
X147490640Y-81344609D01*
X147602013Y-80784700D01*
X147490640Y-80224791D01*
X147173477Y-79750123D01*
X146821142Y-79514700D01*
X147173477Y-79279277D01*
X147490640Y-78804609D01*
X147602013Y-78244700D01*
X147490640Y-77684791D01*
X147173477Y-77210123D01*
X146821142Y-76974700D01*
X147173477Y-76739277D01*
X147490640Y-76264609D01*
X147602013Y-75704700D01*
X147490640Y-75144791D01*
X147173477Y-74670123D01*
X146821142Y-74434700D01*
X147173477Y-74199277D01*
X147490640Y-73724609D01*
X147602013Y-73164700D01*
X147553511Y-72920860D01*
X167378128Y-72920860D01*
X167493381Y-73500278D01*
X167821595Y-73991485D01*
X168119981Y-74190860D01*
X167821595Y-74390235D01*
X167493381Y-74881442D01*
X167378128Y-75460860D01*
X167493381Y-76040278D01*
X167821595Y-76531485D01*
X168119981Y-76730860D01*
X167821595Y-76930235D01*
X167493381Y-77421442D01*
X167378128Y-78000860D01*
X167493381Y-78580278D01*
X167821595Y-79071485D01*
X168119981Y-79270860D01*
X167821595Y-79470235D01*
X167493381Y-79961442D01*
X167378128Y-80540860D01*
X167493381Y-81120278D01*
X167821595Y-81611485D01*
X168119981Y-81810860D01*
X167821595Y-82010235D01*
X167493381Y-82501442D01*
X167378128Y-83080860D01*
X167493381Y-83660278D01*
X167821595Y-84151485D01*
X168119981Y-84350860D01*
X167821595Y-84550235D01*
X167493381Y-85041442D01*
X167378128Y-85620860D01*
X167493381Y-86200278D01*
X167821595Y-86691485D01*
X168119981Y-86890860D01*
X167821595Y-87090235D01*
X167493381Y-87581442D01*
X167378128Y-88160860D01*
X167493381Y-88740278D01*
X167821595Y-89231485D01*
X168119981Y-89430860D01*
X167821595Y-89630235D01*
X167493381Y-90121442D01*
X167378128Y-90700860D01*
X167493381Y-91280278D01*
X167821595Y-91771485D01*
X168119981Y-91970860D01*
X167821595Y-92170235D01*
X167493381Y-92661442D01*
X167378128Y-93240860D01*
X167493381Y-93820278D01*
X167821595Y-94311485D01*
X168119981Y-94510860D01*
X167821595Y-94710235D01*
X167493381Y-95201442D01*
X167378128Y-95780860D01*
X167493381Y-96360278D01*
X167821595Y-96851485D01*
X168119981Y-97050860D01*
X167821595Y-97250235D01*
X167493381Y-97741442D01*
X167378128Y-98320860D01*
X167493381Y-98900278D01*
X167821595Y-99391485D01*
X168119981Y-99590860D01*
X167821595Y-99790235D01*
X167493381Y-100281442D01*
X167378128Y-100860860D01*
X167493381Y-101440278D01*
X167821595Y-101931485D01*
X168119981Y-102130860D01*
X167821595Y-102330235D01*
X167493381Y-102821442D01*
X167378128Y-103400860D01*
X167493381Y-103980278D01*
X167821595Y-104471485D01*
X168119981Y-104670860D01*
X167821595Y-104870235D01*
X167493381Y-105361442D01*
X167378128Y-105940860D01*
X167493381Y-106520278D01*
X167821595Y-107011485D01*
X168119981Y-107210860D01*
X167821595Y-107410235D01*
X167493381Y-107901442D01*
X167378128Y-108480860D01*
X167493381Y-109060278D01*
X167821595Y-109551485D01*
X168312802Y-109879699D01*
X168745964Y-109965860D01*
X169038476Y-109965860D01*
X169471638Y-109879699D01*
X169962845Y-109551485D01*
X170291059Y-109060278D01*
X170406312Y-108480860D01*
X170291059Y-107901442D01*
X169962845Y-107410235D01*
X169664459Y-107210860D01*
X169962845Y-107011485D01*
X170291059Y-106520278D01*
X170406312Y-105940860D01*
X170291059Y-105361442D01*
X169962845Y-104870235D01*
X169664459Y-104670860D01*
X169962845Y-104471485D01*
X170291059Y-103980278D01*
X170406312Y-103400860D01*
X170291059Y-102821442D01*
X169962845Y-102330235D01*
X169664459Y-102130860D01*
X169962845Y-101931485D01*
X170291059Y-101440278D01*
X170406312Y-100860860D01*
X170291059Y-100281442D01*
X169962845Y-99790235D01*
X169664459Y-99590860D01*
X169962845Y-99391485D01*
X170291059Y-98900278D01*
X170406312Y-98320860D01*
X170291059Y-97741442D01*
X169962845Y-97250235D01*
X169664459Y-97050860D01*
X169962845Y-96851485D01*
X170291059Y-96360278D01*
X170406312Y-95780860D01*
X170291059Y-95201442D01*
X169962845Y-94710235D01*
X169664459Y-94510860D01*
X169962845Y-94311485D01*
X170291059Y-93820278D01*
X170406312Y-93240860D01*
X170291059Y-92661442D01*
X169962845Y-92170235D01*
X169664459Y-91970860D01*
X169962845Y-91771485D01*
X170291059Y-91280278D01*
X170406312Y-90700860D01*
X170291059Y-90121442D01*
X169962845Y-89630235D01*
X169664459Y-89430860D01*
X169962845Y-89231485D01*
X170291059Y-88740278D01*
X170406312Y-88160860D01*
X170291059Y-87581442D01*
X169962845Y-87090235D01*
X169664459Y-86890860D01*
X169962845Y-86691485D01*
X170291059Y-86200278D01*
X170406312Y-85620860D01*
X170291059Y-85041442D01*
X169962845Y-84550235D01*
X169664459Y-84350860D01*
X169962845Y-84151485D01*
X170291059Y-83660278D01*
X170373471Y-83245960D01*
X178154307Y-83245960D01*
X178265680Y-83805869D01*
X178582843Y-84280537D01*
X179057511Y-84597700D01*
X179476087Y-84680960D01*
X180558753Y-84680960D01*
X180977329Y-84597700D01*
X181451997Y-84280537D01*
X181769160Y-83805869D01*
X181823693Y-83531710D01*
X185802420Y-83531710D01*
X185802420Y-84172270D01*
X185899093Y-84405659D01*
X186077722Y-84584287D01*
X186311111Y-84680960D01*
X187351670Y-84680960D01*
X187510420Y-84522210D01*
X187510420Y-83372960D01*
X187764420Y-83372960D01*
X187764420Y-84522210D01*
X187923170Y-84680960D01*
X188963729Y-84680960D01*
X189197118Y-84584287D01*
X189375747Y-84405659D01*
X189472420Y-84172270D01*
X189472420Y-83531710D01*
X189313670Y-83372960D01*
X187764420Y-83372960D01*
X187510420Y-83372960D01*
X185961170Y-83372960D01*
X185802420Y-83531710D01*
X181823693Y-83531710D01*
X181880533Y-83245960D01*
X181769160Y-82686051D01*
X181524339Y-82319650D01*
X185802420Y-82319650D01*
X185802420Y-82960210D01*
X185961170Y-83118960D01*
X187510420Y-83118960D01*
X187510420Y-80832960D01*
X187764420Y-80832960D01*
X187764420Y-83118960D01*
X189313670Y-83118960D01*
X189472420Y-82960210D01*
X189472420Y-82319650D01*
X189375747Y-82086261D01*
X189197118Y-81907633D01*
X188963729Y-81810960D01*
X188917976Y-81810960D01*
X189141920Y-81630856D01*
X189411787Y-81137779D01*
X189429324Y-81054999D01*
X189307335Y-80832960D01*
X187764420Y-80832960D01*
X187510420Y-80832960D01*
X185967505Y-80832960D01*
X185845516Y-81054999D01*
X185863053Y-81137779D01*
X186132920Y-81630856D01*
X186356864Y-81810960D01*
X186311111Y-81810960D01*
X186077722Y-81907633D01*
X185899093Y-82086261D01*
X185802420Y-82319650D01*
X181524339Y-82319650D01*
X181451997Y-82211383D01*
X181095921Y-81973461D01*
X181521920Y-81630856D01*
X181791787Y-81137779D01*
X181809324Y-81054999D01*
X181687335Y-80832960D01*
X180144420Y-80832960D01*
X180144420Y-80852960D01*
X179890420Y-80852960D01*
X179890420Y-80832960D01*
X178347505Y-80832960D01*
X178225516Y-81054999D01*
X178243053Y-81137779D01*
X178512920Y-81630856D01*
X178938919Y-81973461D01*
X178582843Y-82211383D01*
X178265680Y-82686051D01*
X178154307Y-83245960D01*
X170373471Y-83245960D01*
X170406312Y-83080860D01*
X170291059Y-82501442D01*
X169962845Y-82010235D01*
X169664459Y-81810860D01*
X169962845Y-81611485D01*
X170291059Y-81120278D01*
X170406312Y-80540860D01*
X170291059Y-79961442D01*
X169962845Y-79470235D01*
X169664459Y-79270860D01*
X169962845Y-79071485D01*
X170291059Y-78580278D01*
X170406312Y-78000860D01*
X170291059Y-77421442D01*
X169962845Y-76930235D01*
X169664459Y-76730860D01*
X169962845Y-76531485D01*
X170291059Y-76040278D01*
X170406312Y-75460860D01*
X170386103Y-75359260D01*
X173182207Y-75359260D01*
X173293580Y-75919169D01*
X173610743Y-76393837D01*
X174085411Y-76711000D01*
X174503987Y-76794260D01*
X174786653Y-76794260D01*
X175205229Y-76711000D01*
X175679897Y-76393837D01*
X175997060Y-75919169D01*
X176055382Y-75625960D01*
X178154307Y-75625960D01*
X178265680Y-76185869D01*
X178582843Y-76660537D01*
X178935178Y-76895960D01*
X178582843Y-77131383D01*
X178265680Y-77606051D01*
X178154307Y-78165960D01*
X178265680Y-78725869D01*
X178582843Y-79200537D01*
X178938919Y-79438459D01*
X178512920Y-79781064D01*
X178243053Y-80274141D01*
X178225516Y-80356921D01*
X178347505Y-80578960D01*
X179890420Y-80578960D01*
X179890420Y-80558960D01*
X180144420Y-80558960D01*
X180144420Y-80578960D01*
X181687335Y-80578960D01*
X181809324Y-80356921D01*
X181791787Y-80274141D01*
X181521920Y-79781064D01*
X181095921Y-79438459D01*
X181451997Y-79200537D01*
X181769160Y-78725869D01*
X181811104Y-78514999D01*
X185845516Y-78514999D01*
X185863053Y-78597779D01*
X186132920Y-79090856D01*
X186562027Y-79435960D01*
X186132920Y-79781064D01*
X185863053Y-80274141D01*
X185845516Y-80356921D01*
X185967505Y-80578960D01*
X187510420Y-80578960D01*
X187510420Y-78292960D01*
X187764420Y-78292960D01*
X187764420Y-80578960D01*
X189307335Y-80578960D01*
X189429324Y-80356921D01*
X189411787Y-80274141D01*
X189141920Y-79781064D01*
X188712813Y-79435960D01*
X189141920Y-79090856D01*
X189411787Y-78597779D01*
X189429324Y-78514999D01*
X189307335Y-78292960D01*
X187764420Y-78292960D01*
X187510420Y-78292960D01*
X185967505Y-78292960D01*
X185845516Y-78514999D01*
X181811104Y-78514999D01*
X181880533Y-78165960D01*
X181769160Y-77606051D01*
X181451997Y-77131383D01*
X181099662Y-76895960D01*
X181451997Y-76660537D01*
X181769160Y-76185869D01*
X181811104Y-75974999D01*
X185845516Y-75974999D01*
X185863053Y-76057779D01*
X186132920Y-76550856D01*
X186562027Y-76895960D01*
X186132920Y-77241064D01*
X185863053Y-77734141D01*
X185845516Y-77816921D01*
X185967505Y-78038960D01*
X187510420Y-78038960D01*
X187510420Y-75752960D01*
X187764420Y-75752960D01*
X187764420Y-78038960D01*
X189307335Y-78038960D01*
X189429324Y-77816921D01*
X189411787Y-77734141D01*
X189141920Y-77241064D01*
X188712813Y-76895960D01*
X189141920Y-76550856D01*
X189411787Y-76057779D01*
X189429324Y-75974999D01*
X189307335Y-75752960D01*
X187764420Y-75752960D01*
X187510420Y-75752960D01*
X185967505Y-75752960D01*
X185845516Y-75974999D01*
X181811104Y-75974999D01*
X181880533Y-75625960D01*
X181811105Y-75276921D01*
X185845516Y-75276921D01*
X185967505Y-75498960D01*
X187510420Y-75498960D01*
X187510420Y-74190960D01*
X187764420Y-74190960D01*
X187764420Y-75498960D01*
X189307335Y-75498960D01*
X189429324Y-75276921D01*
X189411787Y-75194141D01*
X189141920Y-74701064D01*
X188703903Y-74348794D01*
X188164420Y-74190960D01*
X187764420Y-74190960D01*
X187510420Y-74190960D01*
X187110420Y-74190960D01*
X186570937Y-74348794D01*
X186132920Y-74701064D01*
X185863053Y-75194141D01*
X185845516Y-75276921D01*
X181811105Y-75276921D01*
X181769160Y-75066051D01*
X181451997Y-74591383D01*
X180977329Y-74274220D01*
X180558753Y-74190960D01*
X179476087Y-74190960D01*
X179057511Y-74274220D01*
X178582843Y-74591383D01*
X178265680Y-75066051D01*
X178154307Y-75625960D01*
X176055382Y-75625960D01*
X176108433Y-75359260D01*
X175997060Y-74799351D01*
X175679897Y-74324683D01*
X175205229Y-74007520D01*
X174786653Y-73924260D01*
X174503987Y-73924260D01*
X174085411Y-74007520D01*
X173610743Y-74324683D01*
X173293580Y-74799351D01*
X173182207Y-75359260D01*
X170386103Y-75359260D01*
X170291059Y-74881442D01*
X169962845Y-74390235D01*
X169664459Y-74190860D01*
X169962845Y-73991485D01*
X170291059Y-73500278D01*
X170406312Y-72920860D01*
X170291059Y-72341442D01*
X169962845Y-71850235D01*
X169944601Y-71838044D01*
X169989985Y-71829017D01*
X170200029Y-71688669D01*
X170340377Y-71478625D01*
X170389660Y-71230860D01*
X170389660Y-69530860D01*
X170340377Y-69283095D01*
X170200029Y-69073051D01*
X169989985Y-68932703D01*
X169742220Y-68883420D01*
X168042220Y-68883420D01*
X167794455Y-68932703D01*
X167584411Y-69073051D01*
X167444063Y-69283095D01*
X167394780Y-69530860D01*
X167394780Y-71230860D01*
X167444063Y-71478625D01*
X167584411Y-71688669D01*
X167794455Y-71829017D01*
X167839839Y-71838044D01*
X167821595Y-71850235D01*
X167493381Y-72341442D01*
X167378128Y-72920860D01*
X147553511Y-72920860D01*
X147490640Y-72604791D01*
X147173477Y-72130123D01*
X146821142Y-71894700D01*
X147173477Y-71659277D01*
X147490640Y-71184609D01*
X147602013Y-70624700D01*
X147490640Y-70064791D01*
X147173477Y-69590123D01*
X146698809Y-69272960D01*
X146280233Y-69189700D01*
X145997567Y-69189700D01*
X145578991Y-69272960D01*
X145104323Y-69590123D01*
X144787160Y-70064791D01*
X144675787Y-70624700D01*
X144685084Y-70671437D01*
X143584600Y-69570954D01*
X143584600Y-66136002D01*
X143920225Y-65911745D01*
X144248439Y-65420538D01*
X144363692Y-64841120D01*
X144248439Y-64261702D01*
X143920225Y-63770495D01*
X143429018Y-63442281D01*
X142995856Y-63356120D01*
X142703344Y-63356120D01*
X142270182Y-63442281D01*
X141778975Y-63770495D01*
X141579600Y-64068881D01*
X141380225Y-63770495D01*
X140889018Y-63442281D01*
X140455856Y-63356120D01*
X140163344Y-63356120D01*
X139730182Y-63442281D01*
X139238975Y-63770495D01*
X139039600Y-64068881D01*
X138840225Y-63770495D01*
X138349018Y-63442281D01*
X137915856Y-63356120D01*
X137623344Y-63356120D01*
X137190182Y-63442281D01*
X136698975Y-63770495D01*
X136684504Y-63792153D01*
X136617927Y-63631422D01*
X136439299Y-63452793D01*
X136205910Y-63356120D01*
X135515350Y-63356120D01*
X135356600Y-63514870D01*
X135102600Y-63514870D01*
X134943850Y-63356120D01*
X134253290Y-63356120D01*
X134019901Y-63452793D01*
X133841273Y-63631422D01*
X133744600Y-63864811D01*
X101040000Y-63864811D01*
X101040000Y-59833821D01*
X173210320Y-59833821D01*
X173210320Y-60404699D01*
X173428786Y-60932122D01*
X173832458Y-61335794D01*
X174359881Y-61554260D01*
X174930759Y-61554260D01*
X175458182Y-61335794D01*
X175861854Y-60932122D01*
X176080320Y-60404699D01*
X176080320Y-59833821D01*
X175861854Y-59306398D01*
X175458182Y-58902726D01*
X174930759Y-58684260D01*
X174359881Y-58684260D01*
X173832458Y-58902726D01*
X173428786Y-59306398D01*
X173210320Y-59833821D01*
X101040000Y-59833821D01*
X101040000Y-52355750D01*
X114085000Y-52355750D01*
X114085000Y-53046310D01*
X114181673Y-53279699D01*
X114360302Y-53458327D01*
X114593691Y-53555000D01*
X115284250Y-53555000D01*
X115443000Y-53396250D01*
X115443000Y-52197000D01*
X115697000Y-52197000D01*
X115697000Y-53396250D01*
X115855750Y-53555000D01*
X116546309Y-53555000D01*
X116779698Y-53458327D01*
X116958327Y-53279699D01*
X117055000Y-53046310D01*
X117055000Y-52355750D01*
X116896250Y-52197000D01*
X115697000Y-52197000D01*
X115443000Y-52197000D01*
X114243750Y-52197000D01*
X114085000Y-52355750D01*
X101040000Y-52355750D01*
X101040000Y-49530000D01*
X114055908Y-49530000D01*
X114171161Y-50109418D01*
X114499375Y-50600625D01*
X114521033Y-50615096D01*
X114360302Y-50681673D01*
X114181673Y-50860301D01*
X114085000Y-51093690D01*
X114085000Y-51784250D01*
X114243750Y-51943000D01*
X115443000Y-51943000D01*
X115443000Y-51923000D01*
X115697000Y-51923000D01*
X115697000Y-51943000D01*
X116896250Y-51943000D01*
X117055000Y-51784250D01*
X117055000Y-51093690D01*
X116958327Y-50860301D01*
X116779698Y-50681673D01*
X116618967Y-50615096D01*
X116640625Y-50600625D01*
X116968839Y-50109418D01*
X117057819Y-49662080D01*
X119947810Y-49662080D01*
X120082466Y-50339043D01*
X120465935Y-50912945D01*
X121039837Y-51296414D01*
X121545920Y-51397080D01*
X121887680Y-51397080D01*
X122393763Y-51296414D01*
X122967665Y-50912945D01*
X123351134Y-50339043D01*
X123485790Y-49662080D01*
X123351134Y-48985117D01*
X123068470Y-48562080D01*
X130129360Y-48562080D01*
X130129360Y-50762080D01*
X130178643Y-51009845D01*
X130318991Y-51219889D01*
X130529035Y-51360237D01*
X130776800Y-51409520D01*
X132976800Y-51409520D01*
X133224565Y-51360237D01*
X133434609Y-51219889D01*
X133574957Y-51009845D01*
X133624240Y-50762080D01*
X133624240Y-49378360D01*
X136875780Y-49378360D01*
X136875780Y-51378360D01*
X136925063Y-51626125D01*
X137065411Y-51836169D01*
X137275455Y-51976517D01*
X137523220Y-52025800D01*
X139428220Y-52025800D01*
X139675985Y-51976517D01*
X139886029Y-51836169D01*
X140022975Y-51631217D01*
X140148796Y-51754333D01*
X140642740Y-51968923D01*
X140888720Y-51848954D01*
X140888720Y-50505360D01*
X140868720Y-50505360D01*
X140868720Y-50251360D01*
X140888720Y-50251360D01*
X140888720Y-48907766D01*
X141142720Y-48907766D01*
X141142720Y-50251360D01*
X141162720Y-50251360D01*
X141162720Y-50505360D01*
X141142720Y-50505360D01*
X141142720Y-51848954D01*
X141388700Y-51968923D01*
X141882644Y-51754333D01*
X142276561Y-51368886D01*
X142411197Y-51570383D01*
X142936310Y-51921251D01*
X143555720Y-52044460D01*
X144175131Y-51921251D01*
X144700243Y-51570383D01*
X144727058Y-51530250D01*
X150876000Y-51530250D01*
X150876000Y-52370810D01*
X150972673Y-52604199D01*
X151151302Y-52782827D01*
X151384691Y-52879500D01*
X152177750Y-52879500D01*
X152336500Y-52720750D01*
X152336500Y-51371500D01*
X151034750Y-51371500D01*
X150876000Y-51530250D01*
X144727058Y-51530250D01*
X145051111Y-51045270D01*
X145143220Y-50582209D01*
X145143220Y-50174510D01*
X145132018Y-50118190D01*
X150876000Y-50118190D01*
X150876000Y-50958750D01*
X151034750Y-51117500D01*
X152336500Y-51117500D01*
X152336500Y-49768250D01*
X152590500Y-49768250D01*
X152590500Y-51117500D01*
X152610500Y-51117500D01*
X152610500Y-51371500D01*
X152590500Y-51371500D01*
X152590500Y-52720750D01*
X152749250Y-52879500D01*
X153542309Y-52879500D01*
X153775698Y-52782827D01*
X153954327Y-52604199D01*
X153988056Y-52522770D01*
X154384090Y-52787391D01*
X155003500Y-52910600D01*
X155622911Y-52787391D01*
X156148023Y-52436523D01*
X156273500Y-52248733D01*
X156398977Y-52436523D01*
X156924090Y-52787391D01*
X157543500Y-52910600D01*
X158162911Y-52787391D01*
X158688023Y-52436523D01*
X158993395Y-51979500D01*
X184850054Y-51979500D01*
X186844656Y-53974103D01*
X186765908Y-54370000D01*
X186881161Y-54949418D01*
X187209375Y-55440625D01*
X187507761Y-55640000D01*
X187209375Y-55839375D01*
X186881161Y-56330582D01*
X186765908Y-56910000D01*
X186881161Y-57489418D01*
X187209375Y-57980625D01*
X187507761Y-58180000D01*
X187209375Y-58379375D01*
X186881161Y-58870582D01*
X186765908Y-59450000D01*
X186881161Y-60029418D01*
X187209375Y-60520625D01*
X187227619Y-60532816D01*
X187182235Y-60541843D01*
X186972191Y-60682191D01*
X186831843Y-60892235D01*
X186782560Y-61140000D01*
X186782560Y-62840000D01*
X186831843Y-63087765D01*
X186972191Y-63297809D01*
X187182235Y-63438157D01*
X187430000Y-63487440D01*
X189130000Y-63487440D01*
X189377765Y-63438157D01*
X189587809Y-63297809D01*
X189728157Y-63087765D01*
X189777440Y-62840000D01*
X189777440Y-61140000D01*
X189728157Y-60892235D01*
X189587809Y-60682191D01*
X189377765Y-60541843D01*
X189332381Y-60532816D01*
X189350625Y-60520625D01*
X189678839Y-60029418D01*
X189794092Y-59450000D01*
X189678839Y-58870582D01*
X189350625Y-58379375D01*
X189052239Y-58180000D01*
X189350625Y-57980625D01*
X189678839Y-57489418D01*
X189794092Y-56910000D01*
X189678839Y-56330582D01*
X189350625Y-55839375D01*
X189052239Y-55640000D01*
X189350625Y-55440625D01*
X189678839Y-54949418D01*
X189794092Y-54370000D01*
X189678839Y-53790582D01*
X189350625Y-53299375D01*
X189031522Y-53086157D01*
X189161358Y-53025183D01*
X189551645Y-52596924D01*
X189721476Y-52186890D01*
X189600155Y-51957000D01*
X188407000Y-51957000D01*
X188407000Y-51977000D01*
X188153000Y-51977000D01*
X188153000Y-51957000D01*
X186959845Y-51957000D01*
X186941399Y-51991953D01*
X185725411Y-50775965D01*
X185684405Y-50714595D01*
X185441283Y-50552146D01*
X185226888Y-50509500D01*
X185226884Y-50509500D01*
X185154500Y-50495102D01*
X185082116Y-50509500D01*
X158993395Y-50509500D01*
X158688023Y-50052477D01*
X158162910Y-49701609D01*
X157887821Y-49646890D01*
X186838524Y-49646890D01*
X187008355Y-50056924D01*
X187398642Y-50485183D01*
X187557954Y-50560000D01*
X187398642Y-50634817D01*
X187008355Y-51063076D01*
X186838524Y-51473110D01*
X186959845Y-51703000D01*
X188153000Y-51703000D01*
X188153000Y-49417000D01*
X188407000Y-49417000D01*
X188407000Y-51703000D01*
X189600155Y-51703000D01*
X189721476Y-51473110D01*
X189551645Y-51063076D01*
X189161358Y-50634817D01*
X189002046Y-50560000D01*
X189161358Y-50485183D01*
X189551645Y-50056924D01*
X189721476Y-49646890D01*
X189600155Y-49417000D01*
X188407000Y-49417000D01*
X188153000Y-49417000D01*
X186959845Y-49417000D01*
X186838524Y-49646890D01*
X157887821Y-49646890D01*
X157543500Y-49578400D01*
X156924089Y-49701609D01*
X156398977Y-50052477D01*
X156273500Y-50240267D01*
X156148023Y-50052477D01*
X155622910Y-49701609D01*
X155003500Y-49578400D01*
X154384089Y-49701609D01*
X153988056Y-49966229D01*
X153954327Y-49884801D01*
X153775698Y-49706173D01*
X153542309Y-49609500D01*
X152749250Y-49609500D01*
X152590500Y-49768250D01*
X152336500Y-49768250D01*
X152177750Y-49609500D01*
X151384691Y-49609500D01*
X151151302Y-49706173D01*
X150972673Y-49884801D01*
X150876000Y-50118190D01*
X145132018Y-50118190D01*
X145051111Y-49711449D01*
X144700243Y-49186337D01*
X144321261Y-48933110D01*
X186838524Y-48933110D01*
X186959845Y-49163000D01*
X188153000Y-49163000D01*
X188153000Y-47969181D01*
X188407000Y-47969181D01*
X188407000Y-49163000D01*
X189600155Y-49163000D01*
X189721476Y-48933110D01*
X189551645Y-48523076D01*
X189161358Y-48094817D01*
X188636892Y-47848514D01*
X188407000Y-47969181D01*
X188153000Y-47969181D01*
X187923108Y-47848514D01*
X187398642Y-48094817D01*
X187008355Y-48523076D01*
X186838524Y-48933110D01*
X144321261Y-48933110D01*
X144175130Y-48835469D01*
X143555720Y-48712260D01*
X142936309Y-48835469D01*
X142411197Y-49186337D01*
X142276561Y-49387834D01*
X141882644Y-49002387D01*
X141388700Y-48787797D01*
X141142720Y-48907766D01*
X140888720Y-48907766D01*
X140642740Y-48787797D01*
X140148796Y-49002387D01*
X140022975Y-49125503D01*
X139886029Y-48920551D01*
X139675985Y-48780203D01*
X139428220Y-48730920D01*
X137523220Y-48730920D01*
X137275455Y-48780203D01*
X137065411Y-48920551D01*
X136925063Y-49130595D01*
X136875780Y-49378360D01*
X133624240Y-49378360D01*
X133624240Y-48562080D01*
X133574957Y-48314315D01*
X133434609Y-48104271D01*
X133224565Y-47963923D01*
X132976800Y-47914640D01*
X130776800Y-47914640D01*
X130529035Y-47963923D01*
X130318991Y-48104271D01*
X130178643Y-48314315D01*
X130129360Y-48562080D01*
X123068470Y-48562080D01*
X122967665Y-48411215D01*
X122393763Y-48027746D01*
X121887680Y-47927080D01*
X121545920Y-47927080D01*
X121039837Y-48027746D01*
X120465935Y-48411215D01*
X120082466Y-48985117D01*
X119947810Y-49662080D01*
X117057819Y-49662080D01*
X117084092Y-49530000D01*
X116968839Y-48950582D01*
X116640625Y-48459375D01*
X116149418Y-48131161D01*
X115716256Y-48045000D01*
X115423744Y-48045000D01*
X114990582Y-48131161D01*
X114499375Y-48459375D01*
X114171161Y-48950582D01*
X114055908Y-49530000D01*
X101040000Y-49530000D01*
X101040000Y-43974143D01*
X138725475Y-43974143D01*
X138752662Y-44544374D01*
X138918576Y-44944925D01*
X139164695Y-45019059D01*
X139986130Y-44197625D01*
X140002477Y-44540488D01*
X139344301Y-45198665D01*
X139418435Y-45444784D01*
X139955663Y-45637885D01*
X140525894Y-45610698D01*
X140806574Y-45494436D01*
X141205663Y-45637885D01*
X141775894Y-45610698D01*
X142176445Y-45444784D01*
X142250579Y-45198665D01*
X141577155Y-44525240D01*
X141619405Y-44407697D01*
X141609421Y-44198296D01*
X142430185Y-45019059D01*
X142676304Y-44944925D01*
X142678730Y-44938174D01*
X142705906Y-45003782D01*
X143109578Y-45407454D01*
X143637001Y-45625920D01*
X144207879Y-45625920D01*
X144547440Y-45485269D01*
X144887001Y-45625920D01*
X145457879Y-45625920D01*
X145985302Y-45407454D01*
X146388974Y-45003782D01*
X146607440Y-44476359D01*
X146607440Y-43905481D01*
X146555921Y-43781103D01*
X149378235Y-43781103D01*
X149405422Y-44351334D01*
X149571336Y-44751885D01*
X149817455Y-44826019D01*
X150638890Y-44004585D01*
X150655237Y-44347448D01*
X149997061Y-45005625D01*
X150071195Y-45251744D01*
X150608423Y-45444845D01*
X151178654Y-45417658D01*
X151459334Y-45301396D01*
X151858423Y-45444845D01*
X152428654Y-45417658D01*
X152829205Y-45251744D01*
X152903339Y-45005625D01*
X152229915Y-44332200D01*
X152272165Y-44214657D01*
X152262181Y-44005256D01*
X153082945Y-44826019D01*
X153329064Y-44751885D01*
X153331490Y-44745134D01*
X153358666Y-44810742D01*
X153762338Y-45214414D01*
X154289761Y-45432880D01*
X154860639Y-45432880D01*
X155200200Y-45292229D01*
X155539761Y-45432880D01*
X156110639Y-45432880D01*
X156638062Y-45214414D01*
X157041734Y-44810742D01*
X157260200Y-44283319D01*
X157260200Y-43712441D01*
X157041734Y-43185018D01*
X156638062Y-42781346D01*
X156110639Y-42562880D01*
X155539761Y-42562880D01*
X155200200Y-42703531D01*
X154860639Y-42562880D01*
X154289761Y-42562880D01*
X153762338Y-42781346D01*
X153358666Y-43185018D01*
X153331675Y-43250179D01*
X153329064Y-43243875D01*
X153082945Y-43169741D01*
X152261510Y-43991175D01*
X152245163Y-43648312D01*
X152903339Y-42990135D01*
X152829205Y-42744016D01*
X152291977Y-42550915D01*
X151721746Y-42578102D01*
X151441066Y-42694364D01*
X151041977Y-42550915D01*
X150471746Y-42578102D01*
X150071195Y-42744016D01*
X149997061Y-42990135D01*
X150670485Y-43663560D01*
X150628235Y-43781103D01*
X150638219Y-43990504D01*
X149817455Y-43169741D01*
X149571336Y-43243875D01*
X149378235Y-43781103D01*
X146555921Y-43781103D01*
X146388974Y-43378058D01*
X145985302Y-42974386D01*
X145457879Y-42755920D01*
X144887001Y-42755920D01*
X144547440Y-42896571D01*
X144207879Y-42755920D01*
X143637001Y-42755920D01*
X143109578Y-42974386D01*
X142705906Y-43378058D01*
X142678915Y-43443219D01*
X142676304Y-43436915D01*
X142430185Y-43362781D01*
X141608750Y-44184215D01*
X141592403Y-43841352D01*
X142250579Y-43183175D01*
X142176445Y-42937056D01*
X141639217Y-42743955D01*
X141068986Y-42771142D01*
X140788306Y-42887404D01*
X140389217Y-42743955D01*
X139818986Y-42771142D01*
X139418435Y-42937056D01*
X139344301Y-43183175D01*
X140017725Y-43856600D01*
X139975475Y-43974143D01*
X139985459Y-44183544D01*
X139164695Y-43362781D01*
X138918576Y-43436915D01*
X138725475Y-43974143D01*
X101040000Y-43974143D01*
X101040000Y-36707452D01*
X150126433Y-36707452D01*
X150225096Y-36974307D01*
X150834821Y-37200828D01*
X151484820Y-37176776D01*
X151973624Y-36974307D01*
X152072287Y-36707452D01*
X151099360Y-35734525D01*
X150126433Y-36707452D01*
X101040000Y-36707452D01*
X101040000Y-35960692D01*
X138818353Y-35960692D01*
X138917016Y-36227547D01*
X139526741Y-36454068D01*
X140176740Y-36430016D01*
X140665544Y-36227547D01*
X140764207Y-35960692D01*
X139791280Y-34987765D01*
X138818353Y-35960692D01*
X101040000Y-35960692D01*
X101040000Y-34543621D01*
X138145372Y-34543621D01*
X138169424Y-35193620D01*
X138371893Y-35682424D01*
X138638748Y-35781087D01*
X139611675Y-34808160D01*
X139970885Y-34808160D01*
X140943812Y-35781087D01*
X141210667Y-35682424D01*
X141437188Y-35072699D01*
X141413136Y-34422700D01*
X141210667Y-33933896D01*
X140943812Y-33835233D01*
X139970885Y-34808160D01*
X139611675Y-34808160D01*
X138638748Y-33835233D01*
X138371893Y-33933896D01*
X138145372Y-34543621D01*
X101040000Y-34543621D01*
X101040000Y-33655628D01*
X138818353Y-33655628D01*
X139791280Y-34628555D01*
X140611675Y-33808160D01*
X141943840Y-33808160D01*
X141943840Y-35808160D01*
X141993123Y-36055925D01*
X142133471Y-36265969D01*
X142343515Y-36406317D01*
X142591280Y-36455600D01*
X144591280Y-36455600D01*
X144839045Y-36406317D01*
X145049089Y-36265969D01*
X145189437Y-36055925D01*
X145238720Y-35808160D01*
X145238720Y-35290381D01*
X149453452Y-35290381D01*
X149477504Y-35940380D01*
X149679973Y-36429184D01*
X149946828Y-36527847D01*
X150919755Y-35554920D01*
X151278965Y-35554920D01*
X152251892Y-36527847D01*
X152518747Y-36429184D01*
X152745268Y-35819459D01*
X152721216Y-35169460D01*
X152518747Y-34680656D01*
X152251892Y-34581993D01*
X151278965Y-35554920D01*
X150919755Y-35554920D01*
X149946828Y-34581993D01*
X149679973Y-34680656D01*
X149453452Y-35290381D01*
X145238720Y-35290381D01*
X145238720Y-34402388D01*
X150126433Y-34402388D01*
X151099360Y-35375315D01*
X151919755Y-34554920D01*
X153251920Y-34554920D01*
X153251920Y-36554920D01*
X153301203Y-36802685D01*
X153441551Y-37012729D01*
X153651595Y-37153077D01*
X153899360Y-37202360D01*
X155899360Y-37202360D01*
X156147125Y-37153077D01*
X156357169Y-37012729D01*
X156497517Y-36802685D01*
X156546800Y-36554920D01*
X156546800Y-34554920D01*
X156497517Y-34307155D01*
X156357169Y-34097111D01*
X156147125Y-33956763D01*
X155899360Y-33907480D01*
X153899360Y-33907480D01*
X153651595Y-33956763D01*
X153441551Y-34097111D01*
X153301203Y-34307155D01*
X153251920Y-34554920D01*
X151919755Y-34554920D01*
X152072287Y-34402388D01*
X151973624Y-34135533D01*
X151363899Y-33909012D01*
X150713900Y-33933064D01*
X150225096Y-34135533D01*
X150126433Y-34402388D01*
X145238720Y-34402388D01*
X145238720Y-33808160D01*
X145189437Y-33560395D01*
X145049089Y-33350351D01*
X144839045Y-33210003D01*
X144591280Y-33160720D01*
X142591280Y-33160720D01*
X142343515Y-33210003D01*
X142133471Y-33350351D01*
X141993123Y-33560395D01*
X141943840Y-33808160D01*
X140611675Y-33808160D01*
X140764207Y-33655628D01*
X140665544Y-33388773D01*
X140055819Y-33162252D01*
X139405820Y-33186304D01*
X138917016Y-33388773D01*
X138818353Y-33655628D01*
X101040000Y-33655628D01*
X101040000Y-26110000D01*
X202490001Y-26110000D01*
X202490000Y-126290000D01*
M02*
