M48
;DRILL file {KiCad (5.0.0-rc2-dev-444-g2974a2c10)} date 07/07/18 21:15:48
;FORMAT={-:-/ absolute / inch / decimal}
FMAT,2
INCH,TZ
T1C0.0315
T2C0.0394
T3C0.0433
%
G90
G05
M72
T1
X5.5186Y-1.7398
X5.5678Y-1.7398
X5.6662Y-1.7398
X5.7155Y-1.7398
X6.8758Y-2.3669
X6.8758Y-2.9669
X5.938Y-1.7322
X5.9872Y-1.7322
X6.0856Y-1.7322
X6.1349Y-1.7322
X5.1535Y-2.7805
X5.1535Y-2.8805
X5.1535Y-2.9805
X5.1535Y-3.0805
X5.1535Y-3.1805
X5.1535Y-3.2805
X5.1535Y-3.3805
X5.1535Y-3.4805
X5.1535Y-3.5805
X5.1535Y-3.6805
X5.1535Y-3.7805
X5.1535Y-3.8805
X5.1535Y-3.9805
X5.1535Y-4.0805
X5.1535Y-4.1805
X5.1535Y-4.2805
X5.1535Y-4.3805
X5.1535Y-4.4805
X5.1535Y-4.5805
X5.1535Y-4.6805
X5.7535Y-2.7805
X5.7535Y-2.8805
X5.7535Y-2.9805
X5.7535Y-3.0805
X5.7535Y-3.1805
X5.7535Y-3.2805
X5.7535Y-3.3805
X5.7535Y-3.4805
X5.7535Y-3.5805
X5.7535Y-3.6805
X5.7535Y-3.7805
X5.7535Y-3.8805
X5.7535Y-3.9805
X5.7535Y-4.0805
X5.7535Y-4.1805
X5.7535Y-4.2805
X5.7535Y-4.3805
X5.7535Y-4.4805
X5.7535Y-4.5805
X5.7535Y-4.6805
X7.0873Y-2.9774
X7.0873Y-3.0774
X7.0873Y-3.1774
X7.0873Y-3.2774
X7.3873Y-2.9774
X7.3873Y-3.0774
X7.3873Y-3.1774
X7.3873Y-3.2774
X5.9675Y-3.6091
X5.9675Y-3.802
T2
X5.9488Y-1.3998
X6.0984Y-1.3998
X6.6493Y-2.7709
X6.6493Y-2.8709
X6.6493Y-2.9709
X6.6493Y-3.0709
X6.6493Y-3.1709
X6.6493Y-3.2709
X6.6493Y-3.3709
X6.6493Y-3.4709
X6.6493Y-3.5709
X6.6493Y-3.6709
X6.6493Y-3.7709
X6.6493Y-3.8709
X6.6493Y-3.9709
X6.6493Y-4.0709
X6.6493Y-4.1709
X6.6493Y-4.2709
X5.324Y-2.5528
X5.424Y-2.5528
X5.524Y-2.5528
X5.624Y-2.5528
X4.55Y-1.95
X4.55Y-2.05
X5.5036Y-1.3704
X5.6532Y-1.3704
X4.3755Y-2.7735
X4.3755Y-2.8735
X4.3755Y-2.9735
X4.3755Y-3.0735
X4.3755Y-3.1735
X4.3755Y-3.2735
X4.3755Y-3.3735
X4.3755Y-3.4735
X4.3755Y-3.5735
X4.3755Y-3.6735
X4.3755Y-3.7735
X4.3755Y-3.8735
X4.3755Y-3.9735
X4.3755Y-4.0735
X4.3755Y-4.1735
X4.3755Y-4.2735
X7.4126Y-1.9406
X7.4126Y-2.0406
X7.4126Y-2.1406
X7.4126Y-2.2406
X7.4126Y-2.3406
X7.4126Y-2.4406
T3
X4.792Y-1.9552
X5.192Y-1.9552
X6.0025Y-2.0175
X6.1025Y-2.0175
X6.2025Y-2.0175
X5.4518Y-1.9834
X5.5518Y-1.9834
X5.6518Y-1.9834
T0
M30
