G04 #@! TF.GenerationSoftware,KiCad,Pcbnew,(5.0.0-rc2-dev-444-g2974a2c10)*
G04 #@! TF.CreationDate,2018-07-07T21:15:36+02:00*
G04 #@! TF.ProjectId,propellor dev board,70726F70656C6C6F722064657620626F,rev?*
G04 #@! TF.SameCoordinates,Original*
G04 #@! TF.FileFunction,Copper,L1,Top,Signal*
G04 #@! TF.FilePolarity,Positive*
%FSLAX46Y46*%
G04 Gerber Fmt 4.6, Leading zero omitted, Abs format (unit mm)*
G04 Created by KiCad (PCBNEW (5.0.0-rc2-dev-444-g2974a2c10)) date 07/07/18 21:15:36*
%MOMM*%
%LPD*%
G01*
G04 APERTURE LIST*
%ADD10C,1.600000*%
%ADD11R,2.200000X2.200000*%
%ADD12O,2.200000X2.200000*%
%ADD13R,1.700000X1.700000*%
%ADD14O,1.700000X1.700000*%
%ADD15O,1.600000X1.600000*%
%ADD16O,1.905000X2.000000*%
%ADD17R,1.905000X2.000000*%
%ADD18R,2.400000X1.600000*%
%ADD19O,2.400000X1.600000*%
%ADD20R,1.600000X1.600000*%
%ADD21C,1.500000*%
%ADD22R,2.000000X2.000000*%
%ADD23C,2.000000*%
%ADD24C,1.000000*%
%ADD25C,0.250000*%
%ADD26C,0.200000*%
G04 APERTURE END LIST*
D10*
X141422440Y-44190920D03*
X143922440Y-44190920D03*
X140172440Y-44190920D03*
X145172440Y-44190920D03*
X155825200Y-43997880D03*
X150825200Y-43997880D03*
X154575200Y-43997880D03*
X152075200Y-43997880D03*
D11*
X131876800Y-49662080D03*
D12*
X121716800Y-49662080D03*
D13*
X115570000Y-52070000D03*
D14*
X115570000Y-49530000D03*
X111137700Y-108546900D03*
X111137700Y-106006900D03*
X111137700Y-103466900D03*
X111137700Y-100926900D03*
X111137700Y-98386900D03*
X111137700Y-95846900D03*
X111137700Y-93306900D03*
X111137700Y-90766900D03*
X111137700Y-88226900D03*
X111137700Y-85686900D03*
X111137700Y-83146900D03*
X111137700Y-80606900D03*
X111137700Y-78066900D03*
X111137700Y-75526900D03*
X111137700Y-72986900D03*
D13*
X111137700Y-70446900D03*
X168892220Y-70380860D03*
D14*
X168892220Y-72920860D03*
X168892220Y-75460860D03*
X168892220Y-78000860D03*
X168892220Y-80540860D03*
X168892220Y-83080860D03*
X168892220Y-85620860D03*
X168892220Y-88160860D03*
X168892220Y-90700860D03*
X168892220Y-93240860D03*
X168892220Y-95780860D03*
X168892220Y-98320860D03*
X168892220Y-100860860D03*
X168892220Y-103400860D03*
X168892220Y-105940860D03*
X168892220Y-108480860D03*
D10*
X174645320Y-60119260D03*
D15*
X174645320Y-75359260D03*
D13*
X135229600Y-64841120D03*
D14*
X137769600Y-64841120D03*
X140309600Y-64841120D03*
X142849600Y-64841120D03*
D16*
X143555720Y-50378360D03*
X141015720Y-50378360D03*
D17*
X138475720Y-50378360D03*
X152463500Y-51244500D03*
D16*
X155003500Y-51244500D03*
X157543500Y-51244500D03*
D18*
X187637420Y-83245960D03*
D19*
X180017420Y-75625960D03*
X187637420Y-80705960D03*
X180017420Y-78165960D03*
X187637420Y-78165960D03*
X180017420Y-80705960D03*
X187637420Y-75625960D03*
X180017420Y-83245960D03*
D20*
X130898900Y-70624700D03*
D15*
X146138900Y-118884700D03*
X130898900Y-73164700D03*
X146138900Y-116344700D03*
X130898900Y-75704700D03*
X146138900Y-113804700D03*
X130898900Y-78244700D03*
X146138900Y-111264700D03*
X130898900Y-80784700D03*
X146138900Y-108724700D03*
X130898900Y-83324700D03*
X146138900Y-106184700D03*
X130898900Y-85864700D03*
X146138900Y-103644700D03*
X130898900Y-88404700D03*
X146138900Y-101104700D03*
X130898900Y-90944700D03*
X146138900Y-98564700D03*
X130898900Y-93484700D03*
X146138900Y-96024700D03*
X130898900Y-96024700D03*
X146138900Y-93484700D03*
X130898900Y-98564700D03*
X146138900Y-90944700D03*
X130898900Y-101104700D03*
X146138900Y-88404700D03*
X130898900Y-103644700D03*
X146138900Y-85864700D03*
X130898900Y-106184700D03*
X146138900Y-83324700D03*
X130898900Y-108724700D03*
X146138900Y-80784700D03*
X130898900Y-111264700D03*
X146138900Y-78244700D03*
X130898900Y-113804700D03*
X146138900Y-75704700D03*
X130898900Y-116344700D03*
X146138900Y-73164700D03*
X130898900Y-118884700D03*
X146138900Y-70624700D03*
D21*
X151574500Y-96570800D03*
X151574500Y-91670800D03*
D22*
X143591280Y-34808160D03*
D23*
X139791280Y-34808160D03*
X151099360Y-35554920D03*
D22*
X154899360Y-35554920D03*
D13*
X188280000Y-61990000D03*
D14*
X188280000Y-59450000D03*
X188280000Y-56910000D03*
X188280000Y-54370000D03*
X188280000Y-51830000D03*
X188280000Y-49290000D03*
D24*
X103441500Y-28765500D03*
X102616000Y-124904500D03*
X199771000Y-124460000D03*
D25*
X130721100Y-70446900D02*
X130898900Y-70624700D01*
X111064040Y-70520560D02*
X130647440Y-70520560D01*
X111315500Y-73164700D02*
X111137700Y-72986900D01*
X130898900Y-73164700D02*
X111315500Y-73164700D01*
X111315500Y-75704700D02*
X111137700Y-75526900D01*
X130898900Y-75704700D02*
X111315500Y-75704700D01*
X111315500Y-78244700D02*
X111137700Y-78066900D01*
X130898900Y-78244700D02*
X111315500Y-78244700D01*
X147952800Y-91670800D02*
X151574500Y-91670800D01*
X146138900Y-93484700D02*
X147952800Y-91670800D01*
X146685000Y-96570800D02*
X146138900Y-96024700D01*
X151574500Y-96570800D02*
X146685000Y-96570800D01*
X130721100Y-88226900D02*
X130898900Y-88404700D01*
X111137700Y-88226900D02*
X130721100Y-88226900D01*
X130721100Y-85686900D02*
X130898900Y-85864700D01*
X111137700Y-85686900D02*
X130721100Y-85686900D01*
X111315500Y-83324700D02*
X111137700Y-83146900D01*
X130898900Y-83324700D02*
X111315500Y-83324700D01*
X130721100Y-80606900D02*
X130898900Y-80784700D01*
X111137700Y-80606900D02*
X130721100Y-80606900D01*
X146382740Y-70380860D02*
X146138900Y-70624700D01*
X168892220Y-70380860D02*
X146382740Y-70380860D01*
X168648380Y-73164700D02*
X168892220Y-72920860D01*
X146138900Y-73164700D02*
X168648380Y-73164700D01*
X146382740Y-75460860D02*
X146138900Y-75704700D01*
X168892220Y-75460860D02*
X146382740Y-75460860D01*
X174543720Y-75460860D02*
X174645320Y-75359260D01*
X168892220Y-75460860D02*
X174543720Y-75460860D01*
X179750720Y-75359260D02*
X180017420Y-75625960D01*
X174645320Y-75359260D02*
X179750720Y-75359260D01*
X169057320Y-78165960D02*
X168892220Y-78000860D01*
X180017420Y-78165960D02*
X169057320Y-78165960D01*
X183065420Y-60119260D02*
X174645320Y-60119260D01*
X180017420Y-83245960D02*
X181467420Y-83245960D01*
X181467420Y-83245960D02*
X183073040Y-81640340D01*
D26*
X146938899Y-90144701D02*
X146138900Y-90944700D01*
X147871139Y-89212461D02*
X146938899Y-90144701D01*
X179617420Y-83245960D02*
X173650919Y-89212461D01*
X173650919Y-89212461D02*
X147871139Y-89212461D01*
X180017420Y-83245960D02*
X179617420Y-83245960D01*
X131698899Y-97764701D02*
X131810659Y-97764701D01*
X130898900Y-98564700D02*
X131698899Y-97764701D01*
X138630660Y-90944700D02*
X146138900Y-90944700D01*
X131810659Y-97764701D02*
X138630660Y-90944700D01*
D25*
X146382740Y-78000860D02*
X146138900Y-78244700D01*
X168892220Y-78000860D02*
X146382740Y-78000860D01*
D26*
X137769600Y-89154000D02*
X137769600Y-64841120D01*
X130898900Y-96024700D02*
X137769600Y-89154000D01*
X121584720Y-49530000D02*
X121716800Y-49662080D01*
X115570000Y-49530000D02*
X121584720Y-49530000D01*
X111987699Y-109396899D02*
X111987699Y-109407059D01*
X111137700Y-108546900D02*
X111987699Y-109396899D01*
X121465340Y-118884700D02*
X130898900Y-118884700D01*
X111987699Y-109407059D02*
X121465340Y-118884700D01*
X111987699Y-106856899D02*
X111987699Y-106861979D01*
X111137700Y-106006900D02*
X111987699Y-106856899D01*
X121470420Y-116344700D02*
X130898900Y-116344700D01*
X111987699Y-106861979D02*
X121470420Y-116344700D01*
X129767530Y-113804700D02*
X129643070Y-113929160D01*
X130898900Y-113804700D02*
X129767530Y-113804700D01*
X121599960Y-113929160D02*
X111137700Y-103466900D01*
X129643070Y-113929160D02*
X121599960Y-113929160D01*
X129767530Y-111264700D02*
X129754830Y-111277400D01*
X130898900Y-111264700D02*
X129767530Y-111264700D01*
X121488200Y-111277400D02*
X111137700Y-100926900D01*
X129754830Y-111277400D02*
X121488200Y-111277400D01*
X129767530Y-108724700D02*
X129658310Y-108833920D01*
X130898900Y-108724700D02*
X129767530Y-108724700D01*
X121584720Y-108833920D02*
X111137700Y-98386900D01*
X129658310Y-108833920D02*
X121584720Y-108833920D01*
X129767530Y-106184700D02*
X129714190Y-106131360D01*
X130898900Y-106184700D02*
X129767530Y-106184700D01*
X121422160Y-106131360D02*
X111137700Y-95846900D01*
X129714190Y-106131360D02*
X121422160Y-106131360D01*
X129767530Y-103644700D02*
X129714190Y-103591360D01*
X130898900Y-103644700D02*
X129767530Y-103644700D01*
X121422160Y-103591360D02*
X111137700Y-93306900D01*
X129714190Y-103591360D02*
X121422160Y-103591360D01*
X129767530Y-101104700D02*
X129749750Y-101122480D01*
X130898900Y-101104700D02*
X129767530Y-101104700D01*
X121493280Y-101122480D02*
X111137700Y-90766900D01*
X129749750Y-101122480D02*
X121493280Y-101122480D01*
D25*
X168648380Y-80784700D02*
X168892220Y-80540860D01*
X146138900Y-80784700D02*
X168648380Y-80784700D01*
X146382740Y-83080860D02*
X146138900Y-83324700D01*
X168892220Y-83080860D02*
X146382740Y-83080860D01*
X168648380Y-85864700D02*
X168892220Y-85620860D01*
X146138900Y-85864700D02*
X168648380Y-85864700D01*
X146938899Y-87604701D02*
X146138900Y-88404700D01*
X168042221Y-87310861D02*
X147232739Y-87310861D01*
X147232739Y-87310861D02*
X146938899Y-87604701D01*
X168892220Y-88160860D02*
X168042221Y-87310861D01*
D26*
X168042221Y-91550859D02*
X168042221Y-91591499D01*
X168892220Y-90700860D02*
X168042221Y-91550859D01*
X158529020Y-101104700D02*
X146138900Y-101104700D01*
X168042221Y-91591499D02*
X158529020Y-101104700D01*
X168042221Y-94090859D02*
X167996501Y-94090859D01*
X168892220Y-93240860D02*
X168042221Y-94090859D01*
X158442660Y-103644700D02*
X146138900Y-103644700D01*
X167996501Y-94090859D02*
X158442660Y-103644700D01*
X158488380Y-106184700D02*
X146138900Y-106184700D01*
X168892220Y-95780860D02*
X158488380Y-106184700D01*
X168042221Y-99170859D02*
X168032061Y-99170859D01*
X168892220Y-98320860D02*
X168042221Y-99170859D01*
X158478220Y-108724700D02*
X146138900Y-108724700D01*
X168032061Y-99170859D02*
X158478220Y-108724700D01*
X168042221Y-101710859D02*
X168032061Y-101710859D01*
X168892220Y-100860860D02*
X168042221Y-101710859D01*
X158478220Y-111264700D02*
X146138900Y-111264700D01*
X168032061Y-101710859D02*
X158478220Y-111264700D01*
X168042221Y-104250859D02*
X168042221Y-104291499D01*
X168892220Y-103400860D02*
X168042221Y-104250859D01*
X158529020Y-113804700D02*
X146138900Y-113804700D01*
X168042221Y-104291499D02*
X158529020Y-113804700D01*
X158488380Y-116344700D02*
X146138900Y-116344700D01*
X168892220Y-105940860D02*
X158488380Y-116344700D01*
X158488380Y-118884700D02*
X146138900Y-118884700D01*
X168892220Y-108480860D02*
X158488380Y-118884700D01*
X137759440Y-49662080D02*
X138475720Y-50378360D01*
X131876800Y-49662080D02*
X137759440Y-49662080D01*
X143555720Y-44557640D02*
X143922440Y-44190920D01*
X143555720Y-50378360D02*
X143555720Y-44557640D01*
X143591280Y-43859760D02*
X143922440Y-44190920D01*
X143591280Y-34808160D02*
X143591280Y-43859760D01*
X157543500Y-52444500D02*
X157198000Y-52790000D01*
X157543500Y-51244500D02*
X157543500Y-52444500D01*
X147119860Y-52790000D02*
X147099860Y-52810000D01*
X157198000Y-52790000D02*
X147119860Y-52790000D01*
X147099860Y-52810000D02*
X143880000Y-52810000D01*
X143555720Y-52485720D02*
X143555720Y-50378360D01*
X143880000Y-52810000D02*
X143555720Y-52485720D01*
X143922440Y-44190920D02*
X145172440Y-44190920D01*
X154575200Y-35879080D02*
X154899360Y-35554920D01*
X154575200Y-43997880D02*
X154575200Y-35879080D01*
X155003500Y-44426180D02*
X154575200Y-43997880D01*
X155003500Y-51244500D02*
X155003500Y-47340000D01*
X155003500Y-47340000D02*
X163860000Y-47340000D01*
X155003500Y-47340000D02*
X155003500Y-44426180D01*
X174645320Y-58125320D02*
X174645320Y-60119260D01*
X163860000Y-47340000D02*
X174645320Y-58125320D01*
X188280000Y-60940000D02*
X188280000Y-59450000D01*
X188280000Y-61990000D02*
X188280000Y-60940000D01*
X185007919Y-61520000D02*
X183073040Y-61520000D01*
X187077919Y-59450000D02*
X185007919Y-61520000D01*
X188280000Y-59450000D02*
X187077919Y-59450000D01*
D25*
X183073040Y-81640340D02*
X183073040Y-61520000D01*
X183073040Y-61520000D02*
X183073040Y-60111640D01*
D26*
X154575200Y-43997880D02*
X155825200Y-43997880D01*
X146093180Y-70624700D02*
X146138900Y-70624700D01*
X140309600Y-64841120D02*
X146093180Y-70624700D01*
M02*
